<svg width="24" height="25" viewBox="0 0 24 25" fill="none" xmlns="http://www.w3.org/2000/svg">
<g id="Iconos / Buscar" clip-path="url(#clip0_23_3536)">
<path id="Vector" d="M15.5 14.1348H14.71L14.43 13.8648C15.41 12.7248 16 11.2448 16 9.63477C16 6.04477 13.09 3.13477 9.5 3.13477C5.91 3.13477 3 6.04477 3 9.63477C3 13.2248 5.91 16.1348 9.5 16.1348C11.11 16.1348 12.59 15.5448 13.73 14.5648L14 14.8448V15.6348L19 20.6248L20.49 19.1348L15.5 14.1348ZM9.5 14.1348C7.01 14.1348 5 12.1248 5 9.63477C5 7.14477 7.01 5.13477 9.5 5.13477C11.99 5.13477 14 7.14477 14 9.63477C14 12.1248 11.99 14.1348 9.5 14.1348Z" fill="#444444"/>
</g>
<defs>
<clipPath id="clip0_23_3536">
<rect width="24" height="24" fill="white" transform="translate(0 0.134766)"/>
</clipPath>
</defs>
</svg>
