<svg xmlns="http://www.w3.org/2000/svg" width="24" height="25" viewBox="0 0 24 25" fill="none">
  <g clip-path="url(#clip0_836_17148)">
    <path d="M18.6064 5.26953H5.39362C4.07713 5.26953 3 6.31095 3 7.5838V17.0104C3 18.2832 4.07713 19.3246 5.39362 19.3246H11L17.0924 23.2695V19.3246H18.6064C19.9229 19.3246 21 18.2832 21 17.0104V7.5838C21 6.31095 19.9229 5.26953 18.6064 5.26953ZM14.8963 16.3065L12 14.8312L9.10372 16.3065L9.65426 13.1881L7.30851 10.9779L10.5459 10.5209L11.994 7.68011L13.4422 10.5209L16.6795 10.9779L14.3338 13.1881L14.8843 16.3065H14.8963Z" fill="black"/>
  </g>
  <defs>
    <clipPath id="clip0_836_17148">
      <rect width="24" height="24" fill="white" transform="translate(0 0.269531)"/>
    </clipPath>
  </defs>
</svg>