<svg width="24" height="25" viewBox="0 0 24 25" fill="none" xmlns="http://www.w3.org/2000/svg">
<g id="Iconos / Fotogaler&#195;&#173;a" clip-path="url(#clip0_146_7729)">
<path id="Vector" d="M14.25 2.86156L14.17 2.82156L14.16 2.84156C13.46 2.69156 12.74 2.60156 12 2.60156C6.48 2.60156 2 7.08156 2 12.6016C2 18.1216 6.48 22.6016 12 22.6016C17.52 22.6016 22 18.1216 22 12.6016C22 7.85156 18.69 3.88156 14.25 2.86156ZM19.41 9.60156H11.42L14.13 4.90156C16.53 5.56156 18.48 7.32156 19.41 9.60156ZM13.1 4.68156L10.27 9.60156L9.12 11.6016L6.4 6.90156C7.84 5.48156 9.82 4.60156 12 4.60156C12.37 4.60156 12.74 4.63156 13.1 4.68156ZM5.7 7.69156L8.54 12.6016L9.69 14.6016H4.26C4.1 13.9616 4 13.2916 4 12.6016C4 10.7516 4.64 9.05156 5.7 7.69156ZM4.59 15.6016H12.57L9.86 20.3016C7.46 19.6316 5.52 17.8816 4.59 15.6016ZM10.9 20.5116L14.89 13.6016L17.61 18.3016C16.16 19.7216 14.18 20.6016 12 20.6016C11.62 20.6016 11.26 20.5616 10.9 20.5116ZM18.3 17.5116L14.3 10.6016H19.73C19.9 11.2416 20 11.9116 20 12.6016C20 14.4516 19.36 16.1516 18.3 17.5116Z" fill="black"/>
</g>
<defs>
<clipPath id="clip0_146_7729">
<rect width="24" height="24" fill="white" transform="translate(0 0.601562)"/>
</clipPath>
</defs>
</svg>
