<svg width="40" height="40" viewBox="0 0 40 40" fill="none" xmlns="http://www.w3.org/2000/svg">
<g id="Iconos / Youtube">
<path id="Vector" d="M20.0001 1.66665C30.1253 1.66665 38.3334 9.87476 38.3334 20C38.3334 30.1252 30.1253 38.3333 20.0001 38.3333C9.87486 38.3333 1.66675 30.1252 1.66675 20C1.66675 9.87476 9.87486 1.66665 20.0001 1.66665Z" fill="white"/>
<path id="Vector_2" d="M31.1792 25.7301C30.9121 26.7539 30.1214 27.5608 29.1155 27.836C27.2955 28.3333 19.9999 28.3333 19.9999 28.3333C19.9999 28.3333 12.7044 28.3333 10.8844 27.836C9.88103 27.5608 9.09029 26.7566 8.82066 25.7301C8.33325 23.873 8.33325 20 8.33325 20C8.33325 20 8.33325 16.127 8.82066 14.2698C9.0877 13.246 9.87844 12.4391 10.8844 12.164C12.7044 11.6666 19.9999 11.6666 19.9999 11.6666C19.9999 11.6666 27.2955 11.6666 29.1155 12.164C30.1188 12.4391 30.9095 13.2434 31.1792 14.2698C31.6666 16.127 31.6666 20 31.6666 20C31.6666 20 31.6666 23.873 31.1792 25.7301ZM17.6666 16.4285V23.5714L23.7281 20L17.6666 16.4285Z" fill="black"/>
</g>
</svg>
