<svg width="40" height="40" viewBox="0 0 40 40" fill="none" xmlns="http://www.w3.org/2000/svg">
<g id="Iconos / Fotogaler&#195;&#173;a" clip-path="url(#clip0_177_10358)">
<path id="Vector" d="M23.7499 3.76665L23.6166 3.69998L23.5999 3.73331C22.4333 3.48331 21.2333 3.33331 19.9999 3.33331C10.7999 3.33331 3.33325 10.8 3.33325 20C3.33325 29.2 10.7999 36.6666 19.9999 36.6666C29.1999 36.6666 36.6666 29.2 36.6666 20C36.6666 12.0833 31.1499 5.46665 23.7499 3.76665ZM32.3499 15H19.0333L23.5499 7.16665C27.5499 8.26665 30.7999 11.2 32.3499 15ZM21.8333 6.79998L17.1166 15L15.1999 18.3333L10.6666 10.5C13.0666 8.13331 16.3666 6.66665 19.9999 6.66665C20.6166 6.66665 21.2333 6.71665 21.8333 6.79998ZM9.49992 11.8166L14.2333 20L16.1499 23.3333H7.09992C6.83325 22.2666 6.66659 21.15 6.66659 20C6.66659 16.9166 7.73325 14.0833 9.49992 11.8166ZM7.64992 25H20.9499L16.4333 32.8333C12.4333 31.7166 9.19992 28.8 7.64992 25ZM18.1666 33.1833L24.8166 21.6666L29.3499 29.5C26.9333 31.8666 23.6333 33.3333 19.9999 33.3333C19.3666 33.3333 18.7666 33.2666 18.1666 33.1833ZM30.4999 28.1833L23.8333 16.6666H32.8833C33.1666 17.7333 33.3333 18.85 33.3333 20C33.3333 23.0833 32.2666 25.9166 30.4999 28.1833Z" fill="white"/>
</g>
<defs>
<clipPath id="clip0_177_10358">
<rect width="40" height="40" fill="white"/>
</clipPath>
</defs>
</svg>
