<svg width="24" height="25" viewBox="0 0 24 25" fill="none" xmlns="http://www.w3.org/2000/svg">
<g id="Iconos / Ig">
<path id="Subtract" fill-rule="evenodd" clip-rule="evenodd" d="M23 12.2734C23 18.3486 18.0751 23.2734 12 23.2734C5.92487 23.2734 1 18.3486 1 12.2734C1 6.19831 5.92487 1.27344 12 1.27344C18.0751 1.27344 23 6.19831 23 12.2734ZM14.2681 6.50183C13.5723 6.46922 13.3642 6.463 11.6016 6.463C9.84058 6.463 9.63093 6.47077 8.9352 6.50183C8.29227 6.53133 7.94286 6.63849 7.70991 6.72856C7.40088 6.84814 7.18191 6.99101 6.95052 7.2224C6.71913 7.45379 6.57625 7.67431 6.45668 7.9818C6.3666 8.21474 6.25945 8.56416 6.22994 9.20708C6.19733 9.90281 6.19112 10.1125 6.19112 11.8735C6.19112 13.6346 6.19888 13.8442 6.22994 14.5399C6.25945 15.1829 6.3666 15.5323 6.45668 15.7652C6.57625 16.0743 6.71913 16.2932 6.95052 16.5246C7.18191 16.756 7.40243 16.8989 7.70991 17.0185C7.94286 17.1085 8.29227 17.2157 8.9352 17.2452C9.63093 17.2778 9.83902 17.284 11.6016 17.284C13.3642 17.284 13.5723 17.2763 14.2681 17.2452C14.911 17.2157 15.2604 17.1085 15.4933 17.0185C15.8024 16.8989 16.0214 16.756 16.2527 16.5246C16.4841 16.2932 16.627 16.0727 16.7466 15.7652C16.8367 15.5323 16.9438 15.1829 16.9733 14.5399C17.0059 13.8442 17.0121 13.6346 17.0121 11.8735C17.0121 10.1125 17.0044 9.90281 16.9733 9.20708C16.9438 8.56416 16.8367 8.21474 16.7466 7.9818C16.627 7.67276 16.4841 7.45379 16.2527 7.2224C16.0214 6.99101 15.8008 6.84814 15.4933 6.72856C15.2604 6.63849 14.911 6.53133 14.2681 6.50183ZM8.88085 5.31381C9.58434 5.2812 9.80952 5.27344 11.6016 5.27344C13.3937 5.27344 13.6189 5.2812 14.3224 5.31381C15.0259 5.34643 15.5058 5.45824 15.9251 5.6213C16.3599 5.78902 16.728 6.01575 17.0944 6.38225C17.4609 6.7503 17.6861 7.11835 17.8554 7.55163C18.02 7.97248 18.1303 8.45235 18.1629 9.15428C18.1955 9.85777 18.2033 10.083 18.2033 11.8751C18.2033 13.6672 18.1955 13.8924 18.1629 14.5959C18.1303 15.2993 18.0185 15.7792 17.8554 16.1985C17.6877 16.6333 17.4609 17.0014 17.0944 17.3679C16.7264 17.7344 16.3583 17.9596 15.9251 18.1288C15.5042 18.2934 15.0244 18.4037 14.3224 18.4363C13.6189 18.4689 13.3937 18.4767 11.6016 18.4767C9.80952 18.4767 9.58434 18.4689 8.88085 18.4363C8.17736 18.4037 7.69749 18.2919 7.27819 18.1288C6.84336 17.9611 6.47531 17.7344 6.10881 17.3679C5.74231 16.9998 5.51714 16.6318 5.34786 16.1985C5.18325 15.7777 5.07299 15.2978 5.04038 14.5959C5.00776 13.8924 5 13.6672 5 11.8751C5 10.083 5.00776 9.85777 5.04038 9.15428C5.07299 8.45079 5.1848 7.97093 5.34786 7.55163C5.51558 7.1168 5.74231 6.74875 6.10881 6.38225C6.47686 6.01575 6.84492 5.79057 7.27819 5.6213C7.69904 5.45669 8.17891 5.34643 8.88085 5.31381ZM11.6016 8.48495C9.73031 8.48495 8.21307 10.0022 8.21307 11.8735C8.21307 13.7448 9.73031 15.2621 11.6016 15.2621C13.4729 15.2621 14.9902 13.7448 14.9902 11.8735C14.9902 10.0022 13.4729 8.48495 11.6016 8.48495ZM11.6016 14.0741C10.3872 14.0741 9.40108 13.0895 9.40108 11.8735C9.40108 10.6575 10.3857 9.67297 11.6016 9.67297C12.8176 9.67297 13.8022 10.6575 13.8022 11.8735C13.8022 13.0895 12.8176 14.0741 11.6016 14.0741ZM15.9173 8.34985C15.9173 8.78726 15.5627 9.14186 15.1253 9.14186C14.6879 9.14186 14.3333 8.78726 14.3333 8.34985C14.3333 7.91243 14.6879 7.55784 15.1253 7.55784C15.5627 7.55784 15.9173 7.91243 15.9173 8.34985Z" fill="black"/>
</g>
</svg>
