<svg xmlns="http://www.w3.org/2000/svg" width="41" height="42" viewBox="0 0 41 42" fill="none">
<g clip-path="url(#clip0_836_18943)">
<path d="M31.7859 9.3125H9.2141C6.96509 9.3125 5.125 11.0916 5.125 13.266V29.3697C5.125 31.5442 6.96509 33.3233 9.2141 33.3233H18.7917L29.1996 40.0625V33.3233H31.7859C34.0349 33.3233 35.875 31.5442 35.875 29.3697V13.266C35.875 11.0916 34.0349 9.3125 31.7859 9.3125ZM25.4478 28.1674L20.5 25.647L15.5522 28.1674L16.4927 22.84L12.4854 19.0644L18.0159 18.2836L20.4898 13.4306L22.9637 18.2836L28.4942 19.0644L24.4869 22.84L25.4274 28.1674H25.4478Z" fill="white"/>
</g>
<defs>
<clipPath id="clip0_836_18943">
<rect width="41" height="41" fill="white" transform="translate(0 0.769531)"/>
</clipPath>
</defs>
</svg>
