<svg width="40" height="40" viewBox="0 0 40 40" fill="none" xmlns="http://www.w3.org/2000/svg">
<g id="Iconos / Spotify">
<path id="Vector" d="M20.0001 1.66669C9.87465 1.66669 1.66675 9.87459 1.66675 20C1.66675 30.1255 9.87465 38.3334 20.0001 38.3334C30.1255 38.3334 38.3334 30.1255 38.3334 20C38.3334 9.87459 30.1255 1.66669 20.0001 1.66669ZM28.409 28.1101C28.0803 28.6506 27.3769 28.819 26.8391 28.4904C22.5342 25.8585 17.1156 25.2637 10.7329 26.7222C10.1191 26.8635 9.50527 26.4778 9.36403 25.864C9.2228 25.2501 9.60576 24.6363 10.2223 24.4951C17.2053 22.898 23.1969 23.5852 28.0287 26.5375C28.5665 26.8662 28.7376 27.5696 28.409 28.1101ZM30.6524 23.118C30.2369 23.7916 29.3596 24.0008 28.686 23.5879C23.7591 20.5595 16.2465 19.6822 10.4179 21.4504C9.6628 21.6785 8.86428 21.2521 8.63341 20.4971C8.40527 19.742 8.83169 18.9435 9.58675 18.7153C16.2465 16.6946 24.5223 17.6724 30.1825 21.1516C30.8534 21.5645 31.0653 22.4445 30.6524 23.1153V23.118ZM30.8453 17.9195C24.9351 14.4104 15.1872 14.0872 9.54601 15.7983C8.63885 16.0726 7.6828 15.562 7.40848 14.6548C7.13415 13.7477 7.64477 12.7916 8.55193 12.5146C15.027 10.5482 25.7934 10.9284 32.5971 14.9672C33.4119 15.4506 33.6781 16.5045 33.1974 17.3166C32.7139 18.1314 31.6601 18.4003 30.848 17.9168L30.8453 17.9195Z" fill="white"/>
<path id="Vector_2" d="M28.4089 28.1101C28.0803 28.6506 27.3769 28.819 26.8391 28.4904C22.5341 25.8585 17.1156 25.2637 10.7329 26.7222C10.1191 26.8635 9.50524 26.4778 9.36401 25.8639C9.22278 25.2501 9.60574 24.6363 10.2223 24.4951C17.2052 22.898 23.1968 23.5852 28.0287 26.5375C28.5665 26.8662 28.7376 27.5696 28.4089 28.1101Z" fill="black"/>
<path id="Vector_3" d="M30.6523 23.118C30.2367 23.7916 29.3594 24.0007 28.6859 23.5879C23.7589 20.5595 16.2464 19.6822 10.4177 21.4503C9.66265 21.6785 8.86413 21.2521 8.63327 20.497C8.40512 19.742 8.83154 18.9434 9.5866 18.7153C16.2464 16.6945 24.5222 17.6723 30.1824 21.1516C30.8533 21.5644 31.0651 22.4444 30.6523 23.1153V23.118Z" fill="black"/>
<path id="Vector_4" d="M30.8451 17.9195C24.935 14.4104 15.1871 14.0872 9.54588 15.7983C8.63872 16.0726 7.68267 15.562 7.40835 14.6548C7.13403 13.7476 7.64465 12.7916 8.55181 12.5146C15.0269 10.5481 25.7933 10.9284 32.597 14.9672C33.4118 15.4506 33.678 16.5044 33.1972 17.3165C32.7138 18.1313 31.66 18.4002 30.8479 17.9168L30.8451 17.9195Z" fill="black"/>
</g>
</svg>
