<svg width="20" height="21" viewBox="0 0 20 21" fill="none" xmlns="http://www.w3.org/2000/svg">
<g id="uuid-322c4e06-7749-4daa-8bfd-14e7bd667282" clip-path="url(#clip0_45_13886)">
<g id="01 align center">
<path id="Vector" d="M20 20.28H10.0049C4.47673 20.2772 -0.00273585 15.7935 1.25368e-06 10.2653C0.00273836 4.73674 4.4865 0.257274 10.0147 0.260011C15.2969 0.262357 19.668 4.36918 20 9.64084V20.28ZM10.0053 1.92847C5.39835 1.92847 1.66377 5.66305 1.66377 10.27C1.66377 14.8769 5.39835 18.6115 10.0053 18.6115H18.3319V9.72022C18.0352 5.33851 14.3972 1.93394 10.0053 1.92847Z" fill="black"/>
<path id="Vector_2" d="M10.8244 6.09912H5.81946V7.76758H10.8244V6.09912Z" fill="black"/>
<path id="Vector_3" d="M14.161 9.43604H5.81946V11.1045H14.161V9.43604Z" fill="black"/>
<path id="Vector_4" d="M14.161 12.7725H5.81946V14.4409H14.161V12.7725Z" fill="black"/>
</g>
</g>
<defs>
<clipPath id="clip0_45_13886">
<rect width="20" height="20.0199" fill="white" transform="translate(0 0.26001)"/>
</clipPath>
</defs>
</svg>
