<svg width="25" height="25" viewBox="0 0 25 25" fill="none" xmlns="http://www.w3.org/2000/svg">
<path d="M12.9495 22.1348C18.4723 22.1348 22.9495 17.6576 22.9495 12.1348C22.9495 6.61192 18.4723 2.13477 12.9495 2.13477C7.42662 2.13477 2.94946 6.61192 2.94946 12.1348C2.94946 17.6576 7.42662 22.1348 12.9495 22.1348Z" fill="#444444"/>
<path d="M12.9495 7.21619C14.5519 7.21619 14.741 7.22184 15.3735 7.25148C15.958 7.27831 16.2756 7.37572 16.4874 7.4576C16.7669 7.56631 16.9674 7.6962 17.1778 7.90655C17.3881 8.11691 17.518 8.31597 17.6267 8.59691C17.7086 8.80868 17.806 9.12633 17.8328 9.71081C17.8611 10.3433 17.8681 10.5339 17.8681 12.1348C17.8681 13.7358 17.8625 13.9264 17.8328 14.5589C17.806 15.1433 17.7086 15.461 17.6267 15.6728C17.518 15.9523 17.3881 16.1528 17.1778 16.3631C16.9674 16.5735 16.7683 16.7034 16.4874 16.8121C16.2756 16.894 15.958 16.9914 15.3735 17.0182C14.741 17.0464 14.5519 17.0535 12.9495 17.0535C11.3471 17.0535 11.1579 17.0478 10.5255 17.0182C9.94097 16.9914 9.62332 16.894 9.41156 16.8121C9.13202 16.7034 8.93155 16.5735 8.7212 16.3631C8.51084 16.1528 8.38096 15.9537 8.27225 15.6728C8.19037 15.461 8.09295 15.1433 8.06613 14.5589C8.03789 13.9264 8.03083 13.7358 8.03083 12.1348C8.03083 10.5339 8.03648 10.3433 8.06613 9.71081C8.09295 9.12633 8.19037 8.80868 8.27225 8.59691C8.38096 8.31738 8.51084 8.11691 8.7212 7.90655C8.93155 7.6962 9.13061 7.56631 9.41156 7.4576C9.62332 7.37572 9.94097 7.27831 10.5255 7.25148C11.1579 7.22325 11.3485 7.21619 12.9495 7.21619ZM12.9495 6.13477C11.3203 6.13477 11.1156 6.14182 10.476 6.17147C9.83791 6.20112 9.40167 6.30136 9.01908 6.451C8.62519 6.60489 8.2906 6.8096 7.95601 7.14278C7.62283 7.47596 7.41671 7.81055 7.26424 8.20585C7.116 8.58703 7.01435 9.02327 6.9847 9.66281C6.95506 10.3023 6.948 10.5071 6.948 12.1362C6.948 13.7654 6.95506 13.9702 6.9847 14.6097C7.01435 15.2478 7.11459 15.6841 7.26424 16.0666C7.41812 16.4605 7.62283 16.7951 7.95601 17.1297C8.28919 17.4629 8.62378 17.669 9.01908 17.8215C9.40026 17.9697 9.8365 18.0714 10.476 18.101C11.1156 18.1307 11.3203 18.1377 12.9495 18.1377C14.5787 18.1377 14.7834 18.1307 15.4229 18.101C16.061 18.0714 16.4973 17.9711 16.8799 17.8215C17.2738 17.6676 17.6084 17.4629 17.943 17.1297C18.2761 16.7965 18.4823 16.4619 18.6347 16.0666C18.783 15.6855 18.8846 15.2492 18.9143 14.6097C18.9439 13.9702 18.951 13.7654 18.951 12.1362C18.951 10.5071 18.9439 10.3023 18.9143 9.66281C18.8846 9.02468 18.7844 8.58844 18.6347 8.20585C18.4808 7.81196 18.2761 7.47737 17.943 7.14278C17.6098 6.8096 17.2752 6.60348 16.8799 6.451C16.4987 6.30277 16.0625 6.20112 15.4229 6.17147C14.7834 6.14182 14.5787 6.13477 12.9495 6.13477Z" fill="white"/>
<path d="M12.9495 9.05469C11.2483 9.05469 9.86902 10.434 9.86902 12.1352C9.86902 13.8364 11.2483 15.2157 12.9495 15.2157C14.6507 15.2157 16.03 13.8364 16.03 12.1352C16.03 10.434 14.6507 9.05469 12.9495 9.05469ZM12.9495 14.1357C11.8455 14.1357 10.949 13.2406 10.949 12.1352C10.949 11.0298 11.8441 10.1347 12.9495 10.1347C14.055 10.1347 14.95 11.0298 14.95 12.1352C14.95 13.2406 14.055 14.1357 12.9495 14.1357Z" fill="white"/>
<path d="M16.1529 9.65193C16.5505 9.65193 16.8729 9.32957 16.8729 8.93192C16.8729 8.53427 16.5505 8.21191 16.1529 8.21191C15.7552 8.21191 15.4329 8.53427 15.4329 8.93192C15.4329 9.32957 15.7552 9.65193 16.1529 9.65193Z" fill="white"/>
</svg>
