<svg width="25" height="25" viewBox="0 0 25 25" fill="none" xmlns="http://www.w3.org/2000/svg">
<g id="newsletter" clip-path="url(#clip0_23_3530)">
<path id="Vector" d="M22.446 8.13477C22.446 7.41477 22.076 6.78477 21.506 6.43477L12.456 1.13477L3.40599 6.43477C2.83599 6.78477 2.45599 7.41477 2.45599 8.13477V18.1348C2.45599 19.2348 3.35599 20.1348 4.45599 20.1348H20.456C21.556 20.1348 22.456 19.2348 22.456 18.1348L22.446 8.13477ZM20.446 8.13477V8.14477L12.456 13.1348L4.45599 8.13477L12.456 3.45477L20.446 8.13477ZM4.45599 18.1348V10.4748L12.456 15.4948L20.446 10.5048L20.456 18.1348H4.45599Z" fill="#444444"/>
</g>
<defs>
<clipPath id="clip0_23_3530">
<rect width="24" height="24" fill="white" transform="translate(0.455994 0.134766)"/>
</clipPath>
</defs>
</svg>
