<svg width="24" height="25" viewBox="0 0 24 25" fill="none" xmlns="http://www.w3.org/2000/svg">
<g id="Iconos / Podcasts" clip-path="url(#clip0_320_9462)">
<path id="Vector" d="M12 14.0025C13.4229 14.0025 14.5714 12.8035 14.5714 11.3183V5.94984C14.5714 4.46457 13.4229 3.26562 12 3.26562C10.5771 3.26562 9.42857 4.46457 9.42857 5.94984V11.3183C9.42857 12.8035 10.5771 14.0025 12 14.0025ZM11.1429 5.94984C11.1429 5.45773 11.5286 5.0551 12 5.0551C12.4714 5.0551 12.8571 5.45773 12.8571 5.94984V11.3183C12.8571 11.8104 12.4714 12.213 12 12.213C11.5286 12.213 11.1429 11.8104 11.1429 11.3183V5.94984ZM16.2857 11.3183C16.2857 13.7877 14.3657 15.7919 12 15.7919C9.63429 15.7919 7.71429 13.7877 7.71429 11.3183H6C6 14.4767 8.23714 17.0714 11.1429 17.5098V20.2656H12.8571V17.5098C15.7629 17.0714 18 14.4767 18 11.3183H16.2857Z" fill="#444444"/>
</g>
<defs>
<clipPath id="clip0_320_9462">
<rect width="24" height="24" fill="white" transform="translate(0 0.265625)"/>
</clipPath>
</defs>
</svg>
