<svg width="24" height="24" viewBox="0 0 24 24" fill="none" xmlns="http://www.w3.org/2000/svg">
<path d="M12 23C18.0751 23 23 18.0751 23 12C23 5.92487 18.0751 1 12 1C5.92487 1 1 5.92487 1 12C1 18.0751 5.92487 23 12 23Z" fill="white"/>
<path fill-rule="evenodd" clip-rule="evenodd" d="M16.6752 7.32618C15.4351 6.08446 13.7835 5.3999 12.0261 5.3999C8.40376 5.3999 5.45525 8.34688 5.45371 11.9692C5.45371 13.1265 5.75609 14.2577 6.33167 15.2539L5.39999 18.6582L8.88418 17.745C9.84348 18.2684 10.9256 18.5446 12.0246 18.5446H12.0276C15.6499 18.5446 18.5985 15.5977 18.6 11.9738C18.6 10.2179 17.917 8.5679 16.6768 7.32618H16.6752ZM12.0261 17.4349H12.0246C11.0438 17.4349 10.0829 17.1709 9.24488 16.6736L9.04534 16.5554L6.97785 17.0973L7.53041 15.0819L7.39995 14.8747C6.85353 14.006 6.56497 13.0006 6.56497 11.9692C6.56497 8.95776 9.01618 6.50809 12.0307 6.50809C13.4904 6.50809 14.861 7.07753 15.8925 8.10897C16.9239 9.14195 17.4918 10.5126 17.4903 11.9723C17.4903 14.9837 15.0391 17.4334 12.0276 17.4334L12.0261 17.4349ZM15.0222 13.3445C14.8579 13.2616 14.0506 12.8656 13.9002 12.8103C13.7498 12.7551 13.6408 12.7274 13.5303 12.8932C13.4213 13.0574 13.1066 13.4273 13.0099 13.5363C12.9148 13.6453 12.8181 13.6591 12.6539 13.5778C12.4896 13.4949 11.9601 13.323 11.3339 12.7627C10.8458 12.3268 10.5158 11.7896 10.4206 11.6254C10.3254 11.4612 10.4099 11.3721 10.4927 11.2908C10.5664 11.2171 10.657 11.0989 10.7383 11.0038C10.8197 10.9086 10.8473 10.8395 10.9026 10.7306C10.9578 10.6216 10.9302 10.5249 10.8887 10.4435C10.8473 10.3606 10.5188 9.5533 10.3822 9.22483C10.2487 8.90404 10.1136 8.94855 10.0123 8.94241C9.91716 8.93781 9.80664 8.93627 9.69767 8.93627C9.58869 8.93627 9.41065 8.97772 9.26023 9.14195C9.10981 9.30618 8.68618 9.70372 8.68618 10.5111C8.68618 11.3184 9.27404 12.0997 9.35692 12.2086C9.43827 12.3176 10.5142 13.9768 12.1627 14.6875C12.5541 14.8563 12.8611 14.9576 13.099 15.0328C13.4919 15.1572 13.8511 15.1403 14.1335 15.0973C14.4497 15.0497 15.1051 14.6998 15.2417 14.316C15.3783 13.9323 15.3783 13.6039 15.3368 13.5348C15.2954 13.4657 15.1864 13.4258 15.0222 13.3429V13.3445Z" fill="black"/>
</svg>
