<svg width="24" height="25" viewBox="0 0 24 25" fill="none" xmlns="http://www.w3.org/2000/svg">
<path d="M12 23.332C18.0751 23.332 23 18.4072 23 12.332C23 6.2569 18.0751 1.33203 12 1.33203C5.92487 1.33203 1 6.2569 1 12.332C1 18.4072 5.92487 23.332 12 23.332Z" fill="#444444"/>
<path d="M16.7313 16.986L13.0288 11.607L12.6102 10.9987L9.96164 7.1509L9.74221 6.83203H6.48773L7.28147 7.98547L10.803 13.1021L11.2216 13.7098L14.0511 17.8209L14.2706 18.1395H17.5251L16.7313 16.986V16.986ZM14.6574 17.4032L11.7178 13.1322L11.2992 12.5243L7.88805 7.56819H9.35534L12.1139 11.5762L12.5325 12.1842L16.1247 17.4031H14.6574V17.4032Z" fill="white"/>
<path d="M11.2992 12.5242L11.7177 13.1321L11.2215 13.7097L7.41392 18.1394H6.47498L10.8029 13.102L11.2992 12.5242Z" fill="white"/>
<path d="M17.1332 6.83203L13.0288 11.607L12.5325 12.1842L12.114 11.5762L12.6102 10.9987L15.3905 7.7626L16.1943 6.83203H17.1332Z" fill="white"/>
</svg>
