<svg width="24" height="25" viewBox="0 0 24 25" fill="none" xmlns="http://www.w3.org/2000/svg">
<path d="M12 23.332C18.0751 23.332 23 18.4072 23 12.332C23 6.2569 18.0751 1.33203 12 1.33203C5.92487 1.33203 1 6.2569 1 12.332C1 18.4072 5.92487 23.332 12 23.332Z" fill="#444444"/>
<path fill-rule="evenodd" clip-rule="evenodd" d="M16.6753 7.65821C15.4351 6.41649 13.7836 5.73193 12.0261 5.73193C8.40379 5.73193 5.45528 8.67891 5.45375 12.3012C5.45375 13.4585 5.75612 14.5897 6.3317 15.5859L5.40002 18.9903L8.88421 18.077C9.84351 18.6004 10.9256 18.8767 12.0246 18.8767H12.0277C15.65 18.8767 18.5985 15.9297 18.6 12.3058C18.6 10.5499 17.917 8.89993 16.6768 7.65821H16.6753ZM12.0261 17.767H12.0246C11.0438 17.767 10.083 17.503 9.24491 17.0057L9.04537 16.8875L6.97788 17.4293L7.53044 15.414L7.39998 15.2068C6.85356 14.338 6.565 13.3327 6.565 12.3012C6.565 9.28979 9.01621 6.84012 12.0307 6.84012C13.4904 6.84012 14.861 7.40956 15.8925 8.441C16.9239 9.47398 17.4918 10.8446 17.4903 12.3043C17.4903 15.3157 15.0391 17.7654 12.0277 17.7654L12.0261 17.767ZM15.0222 13.6765C14.858 13.5936 14.0506 13.1976 13.9002 13.1424C13.7498 13.0871 13.6408 13.0595 13.5303 13.2252C13.4213 13.3895 13.1067 13.7594 13.01 13.8684C12.9148 13.9773 12.8181 13.9911 12.6539 13.9098C12.4897 13.8269 11.9601 13.655 11.3339 13.0948C10.8458 12.6589 10.5158 12.1217 10.4206 11.9574C10.3255 11.7932 10.4099 11.7042 10.4928 11.6228C10.5664 11.5491 10.657 11.431 10.7383 11.3358C10.8197 11.2406 10.8473 11.1716 10.9026 11.0626C10.9578 10.9536 10.9302 10.8569 10.8888 10.7756C10.8473 10.6927 10.5189 9.88533 10.3823 9.55686C10.2487 9.23607 10.1137 9.28058 10.0124 9.27445C9.91719 9.26984 9.80667 9.26831 9.6977 9.26831C9.58872 9.26831 9.41068 9.30975 9.26026 9.47398C9.10984 9.63821 8.68621 10.0357 8.68621 10.8431C8.68621 11.6504 9.27407 12.4317 9.35695 12.5407C9.4383 12.6497 10.5143 14.3089 12.1627 15.0195C12.5541 15.1884 12.8611 15.2897 13.099 15.3649C13.4919 15.4892 13.8511 15.4723 14.1335 15.4293C14.4497 15.3817 15.1051 15.0318 15.2417 14.6481C15.3783 14.2644 15.3783 13.9359 15.3369 13.8668C15.2954 13.7977 15.1864 13.7578 15.0222 13.675V13.6765Z" fill="white"/>
</svg>
