<svg width="24" height="24" viewBox="0 0 24 24" fill="none" xmlns="http://www.w3.org/2000/svg">
<path d="M12 23C18.0751 23 23 18.0751 23 12C23 5.92487 18.0751 1 12 1C5.92487 1 1 5.92487 1 12C1 18.0751 5.92487 23 12 23Z" fill="white"/>
<path d="M16.7313 16.6539L13.0287 11.275L12.6101 10.6666L9.96158 6.81887L9.74215 6.5H6.48767L7.28141 7.65344L10.8029 12.7701L11.2215 13.3778L14.051 17.4889L14.2705 17.8075H17.525L16.7313 16.654V16.6539ZM14.6573 17.0712L11.7177 12.8002L11.2991 12.1922L7.88799 7.23616H9.35528L12.1139 11.2442L12.5325 11.8522L16.1246 17.0711H14.6573V17.0712Z" fill="black"/>
<path d="M11.2991 12.1924L11.7177 12.8004L11.2214 13.3779L7.41385 17.8076H6.47491L10.8028 12.7702L11.2991 12.1924Z" fill="black"/>
<path d="M17.1331 6.5L13.0287 11.275L12.5325 11.8522L12.1139 11.2442L12.6102 10.6666L15.3904 7.43057L16.1942 6.5H17.1331Z" fill="black"/>
</svg>
