<svg width="22" height="23" viewBox="0 0 22 23" fill="none" xmlns="http://www.w3.org/2000/svg">
<g id="WA Logo">
<path id="Subtract" fill-rule="evenodd" clip-rule="evenodd" d="M22 11.2734C22 17.3486 17.0751 22.2734 11 22.2734C4.92487 22.2734 0 17.3486 0 11.2734C0 5.19831 4.92487 0.273438 11 0.273438C17.0751 0.273438 22 5.19831 22 11.2734ZM4 11.2734C4 7.40758 7.13414 4.27344 11 4.27344C14.8642 4.27754 17.9959 7.40922 18 11.2734C18 15.1393 14.8659 18.2734 11 18.2734C7.13414 18.2734 4 15.1393 4 11.2734ZM9.12066 8.35668H12.8796H12.8799C12.385 7.37887 11.752 6.47762 11.0003 5.68027C10.2489 6.47789 9.61586 7.37914 9.12066 8.35668ZM13.6239 11.2734C13.6193 10.6795 13.5257 10.0897 13.3464 9.52344H8.65281C8.47371 10.0897 8.3802 10.6795 8.37527 11.2734C8.37992 11.8673 8.47344 12.4571 8.65281 13.0234H13.3464C13.5255 12.4571 13.619 11.8673 13.6239 11.2734ZM7.83469 8.35668C8.25633 7.38188 8.81113 6.47023 9.48324 5.64773C7.99684 6.05133 6.72918 7.02449 5.9559 8.35668H7.83469ZM5.43555 9.52344C5.25727 10.0897 5.16676 10.6798 5.16676 11.2734C5.16648 11.8671 5.25727 12.4571 5.43555 13.0234H7.44176C7.29055 12.4522 7.21234 11.8643 7.20852 11.2734C7.21207 10.6825 7.29055 10.0946 7.44176 9.52344H5.43555ZM7.83469 14.1902H5.9559C6.72918 15.5221 7.99684 16.4955 9.48324 16.8991C8.81086 16.0769 8.25633 15.165 7.83469 14.1902ZM12.8793 14.1902H9.12039H9.12012C9.61504 15.168 10.248 16.0693 10.9997 16.8666C11.7511 16.069 12.3841 15.1677 12.8793 14.1902ZM12.5196 16.899C14.005 16.4948 15.2712 15.5215 16.0438 14.1902H14.165C13.7445 15.165 13.1908 16.0766 12.5196 16.899ZM16.5645 13.0234C16.7427 12.4571 16.8332 11.8671 16.8332 11.2734C16.833 10.6798 16.7416 10.0897 16.5631 9.52344H14.5582C14.7095 10.0946 14.7877 10.6825 14.7915 11.2734C14.7879 11.8643 14.7095 12.4522 14.5582 13.0234H16.5645ZM12.5195 5.64773C13.1905 6.47023 13.7445 7.38188 14.165 8.35668H14.1653H16.0441C15.2714 7.02531 14.0051 6.05188 12.5195 5.64773Z" fill="black"/>
</g>
</svg>
