<svg width="25" height="25" viewBox="0 0 25 25" fill="none" xmlns="http://www.w3.org/2000/svg">
<g id="Iconos / Spotify">
<path id="Vector" d="M12.9495 2.13477C7.4265 2.13477 2.94946 6.6118 2.94946 12.1348C2.94946 17.6577 7.4265 22.1348 12.9495 22.1348C18.4724 22.1348 22.9495 17.6577 22.9495 12.1348C22.9495 6.6118 18.4724 2.13477 12.9495 2.13477ZM17.5361 16.5585C17.3569 16.8533 16.9732 16.9451 16.6798 16.7659C14.3317 15.3303 11.3761 15.0059 7.89465 15.8014C7.55983 15.8785 7.22502 15.6681 7.14798 15.3333C7.07094 14.9985 7.27983 14.6637 7.61613 14.5866C11.425 13.7155 14.6932 14.0903 17.3287 15.7007C17.6221 15.88 17.7154 16.2637 17.5361 16.5585ZM18.7598 13.8355C18.5332 14.2029 18.0546 14.317 17.6872 14.0918C14.9998 12.44 10.9021 11.9614 7.7228 12.9259C7.31094 13.0503 6.87539 12.8177 6.74946 12.4059C6.62502 11.994 6.85761 11.5585 7.26946 11.434C10.9021 10.3318 15.4161 10.8651 18.5035 12.7629C18.8695 12.9881 18.985 13.4681 18.7598 13.834V13.8355ZM18.865 11C15.6413 9.08588 10.3243 8.90958 7.24724 9.84291C6.75243 9.99254 6.23094 9.71403 6.08131 9.21921C5.93168 8.7244 6.2102 8.20291 6.70502 8.0518C10.2369 6.97921 16.1095 7.18662 19.8206 9.38958C20.265 9.65328 20.4102 10.2281 20.148 10.6711C19.8843 11.1155 19.3095 11.2622 18.8665 10.9985L18.865 11Z" fill="#444444"/>
<path id="Vector_2" d="M17.5361 16.558C17.3568 16.8528 16.9731 16.9447 16.6798 16.7654C14.3316 15.3298 11.3761 15.0054 7.8946 15.801C7.55979 15.878 7.22497 15.6676 7.14794 15.3328C7.0709 14.998 7.27979 14.6632 7.61608 14.5861C11.425 13.715 14.6931 14.0898 17.3287 15.7002C17.622 15.8795 17.7153 16.2632 17.5361 16.558Z" fill="white"/>
<path id="Vector_3" d="M18.7599 13.8356C18.5332 14.203 18.0547 14.3171 17.6873 14.0919C14.9999 12.4401 10.9021 11.9616 7.72282 12.926C7.31096 13.0504 6.87541 12.8178 6.74948 12.406C6.62504 11.9941 6.85763 11.5586 7.26948 11.4341C10.9021 10.3319 15.4161 10.8653 18.5036 12.763C18.8695 12.9882 18.985 13.4682 18.7599 13.8341V13.8356Z" fill="white"/>
<path id="Vector_4" d="M18.865 11C15.6413 9.08593 10.3243 8.90963 7.24725 9.84296C6.75244 9.99259 6.23095 9.71408 6.08132 9.21926C5.93169 8.72445 6.21021 8.20296 6.70503 8.05185C10.2369 6.97926 16.1095 7.18667 19.8206 9.38963C20.265 9.65333 20.4102 10.2281 20.148 10.6711C19.8843 11.1156 19.3095 11.2622 18.8665 10.9985L18.865 11Z" fill="white"/>
</g>
</svg>
