<svg width="24" height="25" viewBox="0 0 24 25" fill="none" xmlns="http://www.w3.org/2000/svg">
<g id="Iconos / Videos" clip-path="url(#clip0_320_9650)">
<path id="Vector" d="M19.6658 16.3952C19.4827 17.1324 18.9404 17.7133 18.2507 17.9114C17.0027 18.2695 12 18.2695 12 18.2695C12 18.2695 6.99733 18.2695 5.74933 17.9114C5.06133 17.7133 4.51911 17.1343 4.33422 16.3952C4 15.0581 4 12.2695 4 12.2695C4 12.2695 4 9.48096 4.33422 8.14382C4.51733 7.40667 5.05956 6.82572 5.74933 6.62763C6.99733 6.26953 12 6.26953 12 6.26953C12 6.26953 17.0027 6.26953 18.2507 6.62763C18.9387 6.82572 19.4809 7.40477 19.6658 8.14382C20 9.48096 20 12.2695 20 12.2695C20 12.2695 20 15.0581 19.6658 16.3952ZM10.4 9.6981V14.841L14.5564 12.2695L10.4 9.6981Z" fill="#444444"/>
</g>
<defs>
<clipPath id="clip0_320_9650">
<rect width="24" height="24" fill="white" transform="translate(0 0.269531)"/>
</clipPath>
</defs>
</svg>
