<svg width="25" height="25" viewBox="0 0 25 25" fill="none" xmlns="http://www.w3.org/2000/svg">
<g id="Iconos / Youtube">
<path id="Vector" d="M12.9495 2.13477C18.4723 2.13477 22.9495 6.61192 22.9495 12.1348C22.9495 17.6576 18.4723 22.1348 12.9495 22.1348C7.42662 22.1348 2.94946 17.6576 2.94946 12.1348C2.94946 6.61192 7.42662 2.13477 12.9495 2.13477Z" fill="#444444"/>
<path id="Vector_2" d="M19.3377 15.344C19.1851 15.9173 18.7332 16.3692 18.1584 16.5232C17.1184 16.8018 12.9495 16.8018 12.9495 16.8018C12.9495 16.8018 8.78061 16.8018 7.74061 16.5232C7.16728 16.3692 6.71543 15.9188 6.56136 15.344C6.28284 14.304 6.28284 12.1351 6.28284 12.1351C6.28284 12.1351 6.28284 9.9662 6.56136 8.9262C6.71395 8.35287 7.1658 7.90102 7.74061 7.74694C8.78061 7.46842 12.9495 7.46842 12.9495 7.46842C12.9495 7.46842 17.1184 7.46842 18.1584 7.74694C18.7317 7.90102 19.1836 8.35139 19.3377 8.9262C19.6162 9.9662 19.6162 12.1351 19.6162 12.1351C19.6162 12.1351 19.6162 14.304 19.3377 15.344ZM11.6162 10.1351V14.1351L15.0799 12.1351L11.6162 10.1351Z" fill="white"/>
</g>
</svg>
