<svg width="243" height="47" viewBox="0 0 243 47" fill="none" xmlns="http://www.w3.org/2000/svg">
<g clip-path="url(#clip0_435_12448)">
<path d="M22.9126 46.1827C35.5669 46.1827 45.8253 35.9244 45.8253 23.2701C45.8253 10.6158 35.5669 0.357422 22.9126 0.357422C10.2583 0.357422 0 10.6158 0 23.2701C0 35.9244 10.2583 46.1827 22.9126 46.1827Z" fill="#70C6C5"/>
<path d="M29.4448 9.21245C29.0344 8.87974 28.5853 8.56921 28.1417 8.27532V8.26423C28.064 8.20878 27.9809 8.16996 27.8977 8.12006C27.8367 8.08124 27.7701 8.03133 27.7091 7.99806V8.00915C26.406 7.2661 24.8977 7.08865 23.3118 7.0942C24.4541 6.71713 25.6352 6.2347 26.3284 5.2532C26.2064 2.84106 22.225 6.16816 21.4764 7.21619C20.7999 7.33264 20.1344 7.53227 19.5078 7.82062H19.4967C19.4967 7.82062 19.4967 7.82062 19.4912 7.82062C16.3471 9.27345 13.946 12.717 13.946 16.399C13.946 27.6557 28.1417 24.7223 28.1417 33.2397C28.1417 36.4725 26.0345 39.112 22.8571 39.112C17.6668 39.112 15.6595 34.6093 14.2399 28.6871H13.752V39.6055H14.2399C14.4839 38.6739 15.0218 37.942 16.2473 37.942C18.1548 37.942 19.7241 39.6055 22.9514 39.6055C28.0918 39.6055 32.2063 35.491 32.2063 30.1566C32.2063 18.3121 18.0106 21.1956 18.0106 13.3658C18.0106 10.8206 19.1419 8.65794 21.1437 7.8927C21.7703 7.69308 22.6353 7.5489 23.5946 7.5489L23.6944 7.77071C26.3228 12.1791 30.0104 10.4934 25.175 7.94815C25.1805 7.94815 25.1861 7.94815 25.1916 7.94815L24.2157 7.56554C25.4744 7.64872 26.8275 8.00915 27.9698 8.84647C29.0622 9.65607 29.8496 10.7873 30.2045 12.107C30.3653 12.8556 30.3375 13.9647 31.0917 14.4194C31.3412 14.5802 31.6573 14.5913 31.9179 14.4526C32.1785 14.314 32.3504 14.0423 32.356 13.7484C32.478 11.9906 30.3486 11.4971 29.7165 10.1052C34.6351 13.2715 34.5851 8.89083 29.4503 9.21245H29.4448Z" fill="#FDFEFE"/>
<path d="M27.8866 13.5106C28.186 13.2278 28.2249 12.9117 28.0141 12.5069C27.8034 12.1132 27.4319 11.9801 27.0105 12.1409C26.5835 12.3073 26.4449 12.5679 26.5336 13.067C26.5835 13.3608 26.6667 13.4773 26.9051 13.6104C27.2988 13.8266 27.5872 13.7989 27.8922 13.5106H27.8866ZM27.1546 12.8008C27.2656 12.6788 27.5151 12.7509 27.5373 12.9117C27.5484 12.9782 27.4984 13.0503 27.4319 13.078C27.2711 13.139 27.0493 12.9172 27.1546 12.8008Z" fill="#FDFEFE"/>
<path d="M29.8718 15.3503C29.8718 15.195 29.7886 14.9677 29.6999 14.8623C29.5003 14.6183 29.2341 14.5684 28.9291 14.707C28.6186 14.8512 28.541 15.0897 28.6741 15.4445C28.8293 15.8493 29.2397 15.9991 29.6112 15.7883C29.8496 15.6497 29.8774 15.6054 29.8718 15.3447V15.3503Z" fill="#FDFEFE"/>
<path d="M25.9736 15.1466C25.7185 15.2464 25.6686 15.3906 25.7906 15.6623C25.8737 15.8564 25.9347 15.8897 26.1455 15.8897C26.4172 15.8897 26.5336 15.7399 26.5059 15.4128C26.4893 15.1688 26.2342 15.0412 25.9736 15.1466Z" fill="#FDFEFE"/>
<path d="M29.4893 17.8693C29.2397 17.886 29.0678 18.2076 29.1676 18.4737C29.2508 18.7011 29.334 18.751 29.6112 18.7288C29.8719 18.7122 30.0826 18.2797 29.9329 18.0745C29.7942 17.8804 29.7277 17.8527 29.4893 17.8693Z" fill="#FDFEFE"/>
<path d="M28.48 6.46747C28.7074 6.14585 28.6409 5.7965 28.3137 5.56915C27.9311 5.29744 27.4376 5.52479 27.3211 6.02385C27.3045 6.0904 27.3932 6.27893 27.5096 6.4342C27.8035 6.8279 28.2194 6.83899 28.48 6.46747Z" fill="#FDFEFE"/>
<path d="M30.6037 5.27452C30.6148 4.96399 30.2932 4.66456 30.0048 4.71446C29.7331 4.75882 29.5778 5.08599 29.6887 5.36879C29.8995 5.89558 30.5871 5.82904 30.6037 5.27452Z" fill="#FDFEFE"/>
<path d="M30.0826 7.69948C30.4985 7.58857 30.3266 6.9287 29.9052 7.00633C29.7055 7.0396 29.6168 7.13387 29.5669 7.36122C29.5281 7.53867 29.8664 7.76047 30.0826 7.69948Z" fill="#FDFEFE"/>
<path d="M68.7532 32.0714C67.2864 33.1192 65.4945 33.7044 63.6953 33.7044C58.4711 33.7044 55.0895 30.8214 55.0895 25.4672C55.0895 20.113 58.724 17.4395 63.6953 17.4395C65.5378 17.4395 67.337 17.8152 68.9266 18.7328L68.2113 20.6982C67.1202 19.1519 65.704 18.2343 63.7386 18.2343C59.6417 18.2343 57.6329 21.5364 57.6329 25.2938C57.6329 29.0511 59.8873 32.8229 64.1938 32.8229C66.1159 32.8229 67.496 32.0714 68.9194 30.8142L68.7532 32.0714Z" fill="black"/>
<path d="M72.2939 15.1495L72.171 14.8532L80.3216 10.7129L80.9863 12.1725L72.2939 15.1422V15.1495ZM74.2159 33.2931L74.1725 17.8302H76.5137V33.2931H74.2087H74.2159Z" fill="black"/>
<path d="M84.7508 24.9248V33.2849L82.3663 33.2416L82.4097 17.8148H84.0427L84.7074 20.9074C85.7985 18.7324 87.3448 17.2656 90.6036 17.2656L90.3507 19.7729C89.975 19.4767 89.1801 19.2744 88.6816 19.2744C85.4661 19.2744 84.7508 22.367 84.7508 24.9176V24.9248Z" fill="black"/>
<path d="M107.403 32.0714C105.944 33.1192 104.145 33.7044 102.345 33.7044C97.1213 33.7044 93.7324 30.8214 93.7324 25.4672C93.7324 20.113 97.3669 17.4395 102.345 17.4395C104.188 17.4395 105.98 17.8152 107.57 18.7328L106.854 20.6982C105.77 19.1519 104.347 18.2343 102.382 18.2343C98.2846 18.2343 96.2831 21.5364 96.2831 25.2938C96.2831 29.0511 98.5375 32.8229 102.844 32.8229C104.766 32.8229 106.146 32.0714 107.57 30.8142L107.403 32.0714Z" fill="black"/>
<path d="M114.087 17.8578C114.087 17.8578 114.044 23.9201 114.044 27.5113C114.044 29.8091 114.586 32.5693 118.097 32.5693C121.11 32.5693 122.989 29.6862 122.989 25.7121V17.8145L125.374 17.8578V33.2846H123.704L123.076 29.7729C121.992 32.1574 120.07 33.7471 117.18 33.7471C113.625 33.7471 111.746 31.9117 111.746 27.7714V17.8217L114.087 17.865V17.8578Z" fill="black"/>
<path d="M130.388 33.2856L130.432 8.32812H132.816V33.2856H130.388Z" fill="black"/>
<path d="M144.977 33.6616C142.636 33.6616 140.461 32.7873 138.871 31.0315C137.325 29.319 136.992 27.5632 136.992 25.2654C136.992 20.3303 140.584 17.1582 145.396 17.1582C150.208 17.1582 153.257 20.7927 153.257 25.3521C153.257 30.3306 149.869 33.6689 144.984 33.6689L144.977 33.6616ZM145.396 17.823C140.88 17.823 139.63 21.9994 139.63 25.764C139.63 29.2757 141.176 32.9535 145.23 32.9535C149.283 32.9535 150.663 28.5675 150.663 25.1787C150.663 21.7899 149.283 17.823 145.396 17.823Z" fill="black"/>
<path d="M156.697 33.6752H157.08C157.311 33.061 157.81 32.7214 158.38 32.7214C159.414 32.7214 160.483 33.6752 162.557 33.6752C165.505 33.6752 168.179 31.9555 168.179 28.5089C168.179 25.6403 166.343 24.1879 163.012 22.5766C160.563 21.3916 159.226 20.7051 159.226 18.4796C159.226 16.601 160.714 15.611 162.094 15.611C164.58 15.611 165.613 17.6414 166.914 21.6951H167.297L167.066 15.2281H166.683C166.567 15.6905 166.069 15.9145 165.613 15.9145C164.927 15.9145 163.243 15.2281 162.015 15.2281C159.219 15.2281 156.617 17.562 156.617 20.8569C156.617 23.5737 158.38 25.0261 160.599 26.0594C163.048 27.2444 165.346 28.1259 165.346 30.5754C165.346 32.5263 164.002 33.2923 162.514 33.2923C159.717 33.2923 158.38 30.3442 157.08 26.5218H156.697V33.6752ZM170.057 24.5709C170.057 29.0074 173.229 33.6752 177.174 33.6752C181.12 33.6752 184.256 29.0074 184.256 24.5709C184.256 20.1343 181.12 15.2281 177.174 15.2281C173.229 15.2281 170.057 20.1632 170.057 24.5709ZM174.458 22.461C174.458 18.2556 175.036 15.611 177.174 15.611C179.313 15.611 179.855 18.2484 179.855 22.461V26.8253C179.855 31.074 179.321 33.2923 177.174 33.2923C175.028 33.2923 174.458 31.074 174.458 26.8253V22.461ZM191.221 30.8066C191.835 32.5697 192.674 33.6752 194.552 33.6752C198.302 33.6752 200.904 28.4294 200.904 24.3397C200.788 20.2499 198.187 15.2281 194.552 15.2281C192.753 15.2281 191.835 16.2613 191.221 17.9449H191.106V14.9246H190.838C189.841 15.6183 188.165 15.5388 186.474 15.5388H184.863V15.9217H187.081V39.304H184.863V39.687H193.663V39.304H191.098V30.8139H191.214L191.221 30.8066ZM196.467 26.4423C196.467 30.5321 196.236 33.2923 194.097 33.2923C192.717 33.2923 191.106 31.298 191.106 27.5912V21.052C191.106 17.4897 192.71 15.6183 194.097 15.6183C196.236 15.6183 196.467 18.3712 196.467 22.4682V26.4496V26.4423ZM201.518 33.3645H209.979V32.9816H207.761V21.4638C207.761 18.7108 208.982 16.0229 210.861 16.0229C211.851 16.0229 212.848 16.7888 212.848 19.6574V32.9743H210.933V33.3573H218.744V32.9743H216.829V21.1459C216.829 17.6993 215.716 15.2136 212.046 15.2136C209.827 15.2136 208.368 16.7093 207.869 18.5808H207.754V6.85352H207.486C206.525 7.50383 204.769 7.4677 202.667 7.4677H201.518V7.85066H203.743V32.9888H201.518V33.3717V33.3645ZM219.163 33.3645H227.624V32.9816H225.406V14.8523H225.139C224.185 15.5821 221.887 15.5388 220.659 15.5388H219.163V15.9217H221.381V32.996H219.163V33.379V33.3645ZM221.078 9.44753C221.078 10.7482 222.111 11.7453 223.375 11.7453C224.64 11.7453 225.709 10.7482 225.709 9.44753C225.709 8.14691 224.676 7.11364 223.375 7.11364C222.075 7.11364 221.078 8.14691 221.078 9.44753ZM240.746 21.6951C240.746 17.7137 238.867 15.2281 234.698 15.2281C231.902 15.2281 228.997 17.0273 228.997 19.8236C228.997 21.2832 229.951 22.4248 231.41 22.4248C232.632 22.4248 233.629 21.6589 233.629 20.5462C233.629 19.4334 232.783 18.8626 232.169 18.4363C231.866 18.2123 231.634 17.9811 231.634 17.5981C231.634 16.3336 233.014 15.5677 234.351 15.5677C236.15 15.5677 236.728 16.9839 236.728 19.5852V23.3786L234.012 23.6821C230.948 23.9856 228.116 25.5969 228.116 29.0797C228.116 31.7966 230.103 33.6752 233.015 33.6752C235.233 33.6752 236.613 32.3746 236.801 30.113H236.873C237.104 32.0278 237.791 33.6752 239.749 33.6752C242.466 33.6752 243 30.8428 243 27.5551H242.617C242.617 29.7734 242.271 32.2229 241.432 32.2229C240.934 32.2229 240.746 31.7243 240.746 30.1563V21.6951ZM236.728 27.1288C236.728 31.3413 235.775 32.9093 234.12 32.9093C232.465 32.9093 232.357 30.4237 232.357 28.5522C232.357 25.7198 233.354 24.1518 235.955 23.8483L236.721 23.7688V27.136L236.728 27.1288Z" fill="black"/>
</g>
<defs>
<clipPath id="clip0_435_12448">
<rect width="243" height="45.8253" fill="white" transform="translate(0 0.357422)"/>
</clipPath>
</defs>
</svg>
