<svg width="104" height="40" viewBox="0 0 104 40" fill="none" xmlns="http://www.w3.org/2000/svg">
<g id="Logo Sophia" clip-path="url(#clip0_3_10233)">
<path id="Vector" d="M0.581414 31.6524H1.03888C1.31414 30.9312 1.90729 30.5246 2.5935 30.5246C3.82633 30.5246 5.10181 31.6524 7.57136 31.6524C11.0838 31.6524 14.2783 29.6231 14.2783 25.5567C14.2783 22.1694 12.0879 20.4546 8.118 18.5557C5.19874 17.1555 3.60148 16.3422 3.60148 13.7259C3.60148 11.5124 5.38095 10.3385 7.02473 10.3385C9.99051 10.3385 11.2234 12.7323 12.7741 17.5161H13.2316L12.9602 9.88204H12.5027C12.367 10.4268 11.7739 10.6953 11.2272 10.6953C10.4053 10.6953 8.40101 9.88204 6.93944 9.88204C3.60535 9.88204 0.5 12.6364 0.5 16.5225C0.5 19.7295 2.60125 21.4443 5.24526 22.6642C8.1684 24.0644 10.9093 25.1041 10.9093 27.9927C10.9093 30.2944 9.30819 31.1998 7.5326 31.1998C4.19851 31.1998 2.60513 27.7242 1.05051 23.209H0.593044V31.6524H0.581414ZM16.5152 20.9073C16.5152 26.1475 20.2952 31.6524 25.0017 31.6524C29.7081 31.6524 33.4454 26.1437 33.4454 20.9073C33.4454 15.6709 29.7004 9.88587 25.0017 9.88587C20.2952 9.88587 16.5152 15.7131 16.5152 20.9073ZM21.7567 18.4214C21.7567 13.4574 22.4429 10.3424 24.9978 10.3424C27.5526 10.3424 28.1923 13.4574 28.1923 18.4214V23.5696C28.1923 28.5835 27.5565 31.2036 24.9978 31.2036C22.4391 31.2036 21.7567 28.5835 21.7567 23.5696V18.4214ZM41.7496 28.2651C42.4785 30.3443 43.4826 31.6486 45.7195 31.6486C50.1934 31.6486 53.2949 25.4608 53.2949 20.6311C53.1592 15.8013 50.0577 9.88204 45.7195 9.88204C43.5756 9.88204 42.4823 11.1019 41.7496 13.0891H41.6101V9.52143H41.2922C40.102 10.3347 38.1015 10.2465 36.0894 10.2465H34.1704V10.6953H36.8183V38.2852H34.1704V38.7341H44.6689V38.2852H41.6101V28.2651H41.7496ZM48.003 23.1207C48.003 27.9505 47.7277 31.2036 45.1768 31.2036C43.5291 31.2036 41.6139 28.852 41.6139 24.4711V16.7527C41.6139 12.552 43.5291 10.3385 45.1768 10.3385C47.7277 10.3385 48.003 13.5916 48.003 18.4176V23.1207ZM54.0237 31.2918H64.1113V30.843H61.4673V17.2514C61.4673 13.9983 62.9249 10.8334 65.1658 10.8334C66.3482 10.8334 67.5384 11.7388 67.5384 15.1261V30.843H65.2549V31.2918H74.5671V30.843H72.2837V16.8908C72.2837 12.8244 70.9616 9.88971 66.5808 9.88971C63.9329 9.88971 62.2 11.6505 61.6029 13.864H61.4673V0H61.1494C60.0057 0.763403 57.9083 0.721204 55.4 0.721204H54.0276V1.17388H56.6832V30.843H54.0276V31.2918H54.0237ZM75.0633 31.2918H85.1509V30.843H82.5069V9.43704H82.189C81.0492 10.2963 78.3121 10.2503 76.8506 10.2503H75.0672V10.6991H77.7151V30.843H75.0672V31.2918H75.0633ZM77.3468 3.06896C77.3468 4.5996 78.5796 5.77731 80.0839 5.77731C81.5881 5.77731 82.8674 4.5996 82.8674 3.06896C82.8674 1.53831 81.6346 0.310732 80.0839 0.310732C78.5331 0.310732 77.3468 1.53064 77.3468 3.06896ZM100.806 17.5199C100.806 12.8206 98.5648 9.88587 93.5908 9.88587C90.2606 9.88587 86.7947 12.0073 86.7947 15.3064C86.7947 17.025 87.9345 18.3792 89.6713 18.3792C91.129 18.3792 92.3192 17.4739 92.3192 16.1657C92.3192 14.8576 91.3151 14.1824 90.5824 13.6799C90.2218 13.4113 89.9466 13.139 89.9466 12.6901C89.9466 11.1979 91.5903 10.2963 93.1876 10.2963C95.3315 10.2963 96.0177 11.9689 96.0177 15.0379V19.5109L92.7766 19.8715C89.1247 20.2321 85.7479 22.131 85.7479 26.2357C85.7479 29.4428 88.1206 31.6563 91.5903 31.6563C94.2382 31.6563 95.882 30.118 96.1069 27.4556H96.196C96.4713 29.7152 97.2932 31.6563 99.6232 31.6563C102.86 31.6563 103.5 28.3149 103.5 24.4327H103.046C103.046 27.049 102.635 29.9415 101.631 29.9415C101.038 29.9415 100.813 29.3546 100.813 27.5055V17.5199H100.806ZM96.0138 23.9302C96.0138 28.8981 94.874 30.7471 92.9085 30.7471C90.9429 30.7471 90.8072 27.8124 90.8072 25.6028C90.8072 22.2576 91.9974 20.4086 95.1028 20.0479L96.0138 19.9559V23.9302Z" fill="black"/>
</g>
<defs>
<clipPath id="clip0_3_10233">
<rect width="103" height="40" fill="white" transform="translate(0.5)"/>
</clipPath>
</defs>
</svg>
