<svg width="112" height="176" viewBox="0 0 112 176" fill="none" xmlns="http://www.w3.org/2000/svg">
<g id="Vector">
<path d="M1.6349 175.848H5.28814C7.48627 170.028 12.2231 166.746 17.7029 166.746C27.5481 166.746 37.7338 175.848 57.4551 175.848C85.5045 175.848 111.015 159.47 111.015 126.653C111.015 99.3158 93.5231 85.4768 61.8204 70.1518C38.5078 58.8515 25.7524 52.2881 25.7524 31.1736C25.7524 13.3099 39.9629 3.8363 53.0898 3.8363C76.7739 3.8363 86.6191 23.1551 99.0029 61.7618H102.656L100.489 0.1521H96.8357C95.7522 4.54837 91.0153 6.71554 86.65 6.71554C80.0866 6.71554 64.0805 0.1521 52.4087 0.1521C25.7834 0.1521 0.984749 22.3811 0.984749 53.7432C0.984749 79.6254 17.7649 93.4644 38.8793 103.31C62.2229 114.61 84.1113 123 84.1113 146.312C84.1113 164.888 71.325 172.195 57.1455 172.195C30.5202 172.195 17.7958 144.145 5.38102 107.706H1.72778V175.848H1.6349Z" fill="black"/>
<path d="M1.6349 175.848H5.28814C7.48627 170.028 12.2231 166.746 17.7029 166.746C27.5481 166.746 37.7338 175.848 57.4551 175.848C85.5045 175.848 111.015 159.47 111.015 126.653C111.015 99.3158 93.5231 85.4768 61.8204 70.1518C38.5078 58.8515 25.7524 52.2881 25.7524 31.1736C25.7524 13.3099 39.9629 3.8363 53.0898 3.8363C76.7739 3.8363 86.6191 23.1551 99.0029 61.7618H102.656L100.489 0.1521H96.8357C95.7522 4.54837 91.0153 6.71554 86.65 6.71554C80.0866 6.71554 64.0805 0.1521 52.4087 0.1521C25.7834 0.1521 0.984749 22.3811 0.984749 53.7432C0.984749 79.6254 17.7649 93.4644 38.8793 103.31C62.2229 114.61 84.1113 123 84.1113 146.312C84.1113 164.888 71.325 172.195 57.1455 172.195C30.5202 172.195 17.7958 144.145 5.38102 107.706H1.72778V175.848H1.6349Z" fill="black"/>
</g>
</svg>
