<svg width="103" height="40" viewBox="0 0 103 40" fill="none" xmlns="http://www.w3.org/2000/svg">
<g id="Logo Sophia">
<path id="Vector" d="M0.0814137 31.6524H0.538881C0.814137 30.9312 1.40729 30.5246 2.0935 30.5246C3.32633 30.5246 4.60181 31.6524 7.07136 31.6524C10.5838 31.6524 13.7783 29.6231 13.7783 25.5567C13.7783 22.1694 11.5879 20.4546 7.618 18.5557C4.69874 17.1555 3.10148 16.3422 3.10148 13.7259C3.10148 11.5124 4.88095 10.3385 6.52473 10.3385C9.49051 10.3385 10.7234 12.7323 12.2741 17.5161H12.7316L12.4602 9.88204H12.0027C11.867 10.4268 11.2739 10.6953 10.7272 10.6953C9.90534 10.6953 7.90101 9.88204 6.43944 9.88204C3.10535 9.88204 0 12.6364 0 16.5225C0 19.7295 2.10125 21.4443 4.74526 22.6642C7.6684 24.0644 10.4093 25.1041 10.4093 27.9927C10.4093 30.2944 8.80819 31.1998 7.0326 31.1998C3.69851 31.1998 2.10513 27.7242 0.550512 23.209H0.0930443V31.6524H0.0814137ZM16.0152 20.9073C16.0152 26.1475 19.7952 31.6524 24.5017 31.6524C29.2081 31.6524 32.9454 26.1437 32.9454 20.9073C32.9454 15.6709 29.2004 9.88587 24.5017 9.88587C19.7952 9.88587 16.0152 15.7131 16.0152 20.9073ZM21.2567 18.4214C21.2567 13.4574 21.9429 10.3424 24.4978 10.3424C27.0526 10.3424 27.6923 13.4574 27.6923 18.4214V23.5696C27.6923 28.5835 27.0565 31.2036 24.4978 31.2036C21.9391 31.2036 21.2567 28.5835 21.2567 23.5696V18.4214ZM41.2496 28.2651C41.9785 30.3443 42.9826 31.6486 45.2195 31.6486C49.6934 31.6486 52.7949 25.4608 52.7949 20.6311C52.6592 15.8013 49.5577 9.88204 45.2195 9.88204C43.0756 9.88204 41.9823 11.1019 41.2496 13.0891H41.1101V9.52143H40.7922C39.602 10.3347 37.6015 10.2465 35.5894 10.2465H33.6704V10.6953H36.3183V38.2852H33.6704V38.7341H44.1689V38.2852H41.1101V28.2651H41.2496ZM47.503 23.1207C47.503 27.9505 47.2277 31.2036 44.6768 31.2036C43.0291 31.2036 41.1139 28.852 41.1139 24.4711V16.7527C41.1139 12.552 43.0291 10.3385 44.6768 10.3385C47.2277 10.3385 47.503 13.5916 47.503 18.4176V23.1207ZM53.5237 31.2918H63.6113V30.843H60.9673V17.2514C60.9673 13.9983 62.4249 10.8334 64.6658 10.8334C65.8482 10.8334 67.0384 11.7388 67.0384 15.1261V30.843H64.7549V31.2918H74.0671V30.843H71.7837V16.8908C71.7837 12.8244 70.4616 9.88971 66.0808 9.88971C63.4329 9.88971 61.7 11.6505 61.1029 13.864H60.9673V0H60.6494C59.5057 0.763403 57.4083 0.721204 54.9 0.721204H53.5276V1.17388H56.1832V30.843H53.5276V31.2918H53.5237ZM74.5633 31.2918H84.6509V30.843H82.0069V9.43704H81.689C80.5492 10.2963 77.8121 10.2503 76.3506 10.2503H74.5672V10.6991H77.2151V30.843H74.5672V31.2918H74.5633ZM76.8468 3.06896C76.8468 4.5996 78.0796 5.77731 79.5839 5.77731C81.0881 5.77731 82.3674 4.5996 82.3674 3.06896C82.3674 1.53831 81.1346 0.310732 79.5839 0.310732C78.0331 0.310732 76.8468 1.53064 76.8468 3.06896ZM100.306 17.5199C100.306 12.8206 98.0648 9.88587 93.0908 9.88587C89.7606 9.88587 86.2947 12.0073 86.2947 15.3064C86.2947 17.025 87.4345 18.3792 89.1713 18.3792C90.629 18.3792 91.8192 17.4739 91.8192 16.1657C91.8192 14.8576 90.8151 14.1824 90.0824 13.6799C89.7218 13.4113 89.4466 13.139 89.4466 12.6901C89.4466 11.1979 91.0903 10.2963 92.6876 10.2963C94.8315 10.2963 95.5177 11.9689 95.5177 15.0379V19.5109L92.2766 19.8715C88.6247 20.2321 85.2479 22.131 85.2479 26.2357C85.2479 29.4428 87.6206 31.6563 91.0903 31.6563C93.7382 31.6563 95.382 30.118 95.6069 27.4556H95.696C95.9713 29.7152 96.7932 31.6563 99.1232 31.6563C102.36 31.6563 103 28.3149 103 24.4327H102.546C102.546 27.049 102.135 29.9415 101.131 29.9415C100.538 29.9415 100.313 29.3546 100.313 27.5055V17.5199H100.306ZM95.5138 23.9302C95.5138 28.8981 94.374 30.7471 92.4085 30.7471C90.4429 30.7471 90.3072 27.8124 90.3072 25.6028C90.3072 22.2576 91.4974 20.4086 94.6028 20.0479L95.5138 19.9559V23.9302Z" fill="black"/>
</g>
</svg>
