<svg width="259" height="60" viewBox="0 0 259 60" fill="none" xmlns="http://www.w3.org/2000/svg">
<g clip-path="url(#clip0_3_5239)">
<path d="M30.4648 60.0073C47.0138 60.0073 60.4295 46.5742 60.4295 30.0036C60.4295 13.4331 47.0138 0 30.4648 0C13.9157 0 0.5 13.4331 0.5 30.0036C0.5 46.5742 13.9157 60.0073 30.4648 60.0073Z" fill="#70C6C5"/>
<path d="M39.0074 11.5963C38.4708 11.1606 37.8834 10.754 37.3032 10.3691V10.3546C37.2017 10.282 37.0929 10.2311 36.9842 10.1658C36.9044 10.115 36.8174 10.0496 36.7376 10.006V10.0206C35.0334 9.04755 33.0609 8.81519 30.9869 8.82245C32.4807 8.32869 34.0254 7.69695 34.9319 6.41171C34.7723 3.25305 29.5655 7.60982 28.5865 8.9822C27.7018 9.13469 26.8315 9.3961 26.0121 9.77368H25.9976C25.9976 9.77368 25.9976 9.77368 25.9903 9.77368C21.8785 11.6761 18.7384 16.1854 18.7384 21.0069C18.7384 35.7473 37.3032 31.9061 37.3032 43.0594C37.3032 47.2927 34.5475 50.7491 30.3922 50.7491C23.6044 50.7491 20.9793 44.853 19.1228 37.0979H18.4846V51.3954H19.1228C19.4419 50.1755 20.1453 49.217 21.748 49.217C24.2426 49.217 26.2949 51.3954 30.5155 51.3954C37.238 51.3954 42.6189 46.0075 42.6189 39.0221C42.6189 23.512 24.0541 27.2879 24.0541 17.035C24.0541 13.702 25.5334 10.8701 28.1514 9.86808C28.9708 9.60667 30.1021 9.41788 31.3567 9.41788L31.4872 9.70833C34.9246 15.4811 39.7471 13.2736 33.4235 9.94069C33.4307 9.94069 33.438 9.94069 33.4452 9.94069L32.1689 9.43966C33.8151 9.54858 35.5845 10.0206 37.0784 11.117C38.507 12.1772 39.5368 13.6585 40.0009 15.3867C40.2112 16.3669 40.175 17.8192 41.1612 18.4146C41.4876 18.6252 41.9009 18.6397 42.2418 18.4582C42.5826 18.2766 42.8074 17.9208 42.8147 17.536C42.9742 15.2342 40.1895 14.5879 39.3628 12.7653C45.7952 16.9115 45.7299 11.1751 39.0147 11.5963H39.0074Z" fill="#FDFEFE"/>
<path d="M36.9696 17.2238C37.3612 16.8534 37.412 16.4395 37.1364 15.9095C36.8608 15.3939 36.3749 15.2196 35.8238 15.4302C35.2654 15.6481 35.0841 15.9893 35.2001 16.6429C35.2654 17.0277 35.3742 17.1802 35.686 17.3545C36.2009 17.6377 36.578 17.6013 36.9769 17.2238H36.9696ZM36.0124 16.2943C36.1574 16.1346 36.4837 16.229 36.5127 16.4395C36.5272 16.5267 36.462 16.6211 36.3749 16.6574C36.1646 16.7373 35.8746 16.4468 36.0124 16.2943Z" fill="#FDFEFE"/>
<path d="M39.5659 19.6345C39.5659 19.4312 39.4571 19.1335 39.3411 18.9955C39.08 18.676 38.732 18.6107 38.3331 18.7922C37.927 18.981 37.8255 19.2932 37.9995 19.7579C38.2026 20.288 38.7392 20.4841 39.2251 20.2081C39.5369 20.0266 39.5732 19.9685 39.5659 19.6272V19.6345Z" fill="#FDFEFE"/>
<path d="M34.4676 19.3658C34.1341 19.4965 34.0688 19.6853 34.2283 20.0411C34.3371 20.2953 34.4169 20.3388 34.6925 20.3388C35.0478 20.3388 35.2001 20.1428 35.1638 19.7144C35.1421 19.3949 34.8085 19.2279 34.4676 19.3658Z" fill="#FDFEFE"/>
<path d="M39.0655 22.9311C38.7392 22.9529 38.5144 23.3741 38.6449 23.7226C38.7537 24.0203 38.8625 24.0857 39.225 24.0566C39.5659 24.0348 39.8415 23.4685 39.6457 23.1998C39.4644 22.9457 39.3773 22.9093 39.0655 22.9311Z" fill="#FDFEFE"/>
<path d="M37.7456 8.00191C38.0429 7.58075 37.9559 7.12329 37.528 6.82558C37.0276 6.46977 36.3822 6.76749 36.2299 7.421C36.2082 7.50814 36.3242 7.75502 36.4765 7.95834C36.8608 8.47389 37.4047 8.48841 37.7456 8.00191Z" fill="#FDFEFE"/>
<path d="M40.5231 6.44076C40.5376 6.03413 40.117 5.64202 39.7399 5.70737C39.3846 5.76546 39.1815 6.19387 39.3266 6.5642C39.6021 7.25402 40.5014 7.16689 40.5231 6.44076Z" fill="#FDFEFE"/>
<path d="M39.8413 9.61395C40.3852 9.46872 40.1604 8.60463 39.6092 8.70629C39.3482 8.74986 39.2321 8.8733 39.1669 9.17101C39.1161 9.40337 39.5585 9.69382 39.8413 9.61395Z" fill="#FDFEFE"/>
<path d="M83.621 38.8479C82.1489 39.9008 80.3504 40.489 78.5447 40.489C73.3016 40.489 69.9077 37.5917 69.9077 32.2111C69.9077 26.8305 73.5554 24.1438 78.5447 24.1438C80.3939 24.1438 82.1996 24.5214 83.7951 25.4436L83.0771 27.4186C81.9821 25.8647 80.5607 24.9425 78.5882 24.9425C74.4764 24.9425 72.4604 28.2609 72.4604 32.0368C72.4604 35.8127 74.723 39.6031 79.0451 39.6031C80.9741 39.6031 82.3592 38.8479 83.7878 37.5844L83.621 38.8479Z" fill="#2E2D2C"/>
<path d="M87.1746 21.842L87.0513 21.5443L95.2314 17.3835L95.8986 18.8503L87.1746 21.8347V21.842ZM89.1036 40.0751L89.06 24.5359H91.4096V40.0751H89.0963H89.1036Z" fill="#2E2D2C"/>
<path d="M99.6766 31.6664V40.0678L97.2834 40.0242L97.327 24.5213H98.9659L99.633 27.6292C100.728 25.4435 102.28 23.9695 105.551 23.9695L105.297 26.4891C104.92 26.1914 104.122 25.9881 103.622 25.9881C100.394 25.9881 99.6766 29.096 99.6766 31.6592V31.6664Z" fill="#2E2D2C"/>
<path d="M122.411 38.8479C120.946 39.9008 119.141 40.489 117.335 40.489C112.092 40.489 108.691 37.5917 108.691 32.2111C108.691 26.8305 112.338 24.1438 117.335 24.1438C119.184 24.1438 120.983 24.5214 122.578 25.4436L121.86 27.4186C120.772 25.8647 119.344 24.9425 117.371 24.9425C113.259 24.9425 111.251 28.2609 111.251 32.0368C111.251 35.8127 113.513 39.6031 117.835 39.6031C119.764 39.6031 121.149 38.8479 122.578 37.5844L122.411 38.8479Z" fill="#2E2D2C"/>
<path d="M129.119 24.5649C129.119 24.5649 129.076 30.6571 129.076 34.266C129.076 36.5751 129.62 39.3489 133.144 39.3489C136.168 39.3489 138.054 36.4517 138.054 32.4579V24.5214L140.447 24.5649V40.0678H138.772L138.141 36.5388C137.053 38.935 135.124 40.5325 132.223 40.5325C128.655 40.5325 126.77 38.6881 126.77 34.5274V24.5286L129.119 24.5722V24.5649Z" fill="#2E2D2C"/>
<path d="M145.479 40.0678L145.523 14.9873H147.916V40.0678H145.479Z" fill="#2E2D2C"/>
<path d="M160.121 40.4454C157.771 40.4454 155.589 39.5668 153.993 37.8023C152.441 36.0813 152.108 34.3168 152.108 32.0078C152.108 27.0483 155.712 23.8606 160.542 23.8606C165.371 23.8606 168.432 27.513 168.432 32.0949C168.432 37.0979 165.031 40.4526 160.128 40.4526L160.121 40.4454ZM160.542 24.5286C156.009 24.5286 154.755 28.7257 154.755 32.5088C154.755 36.0378 156.307 39.7338 160.375 39.7338C164.443 39.7338 165.828 35.3262 165.828 31.9206C165.828 28.5151 164.443 24.5286 160.542 24.5286Z" fill="#2E2D2C"/>
<path d="M171.884 40.4599H172.268C172.5 39.8427 173.001 39.5014 173.573 39.5014C174.61 39.5014 175.684 40.4599 177.765 40.4599C180.724 40.4599 183.407 38.7317 183.407 35.2681C183.407 32.3853 181.565 30.9258 178.222 29.3065C175.763 28.1157 174.422 27.4259 174.422 25.1894C174.422 23.3015 175.916 22.3067 177.301 22.3067C179.796 22.3067 180.833 24.3471 182.138 28.4207H182.522L182.29 21.9218H181.906C181.79 22.3865 181.289 22.6116 180.833 22.6116C180.144 22.6116 178.454 21.9218 177.221 21.9218C174.415 21.9218 171.804 24.2672 171.804 27.5784C171.804 30.3086 173.573 31.7681 175.8 32.8065C178.258 33.9973 180.564 34.8832 180.564 37.3448C180.564 39.3053 179.215 40.075 177.721 40.075C174.915 40.075 173.573 37.1124 172.268 33.2712H171.884V40.4599ZM185.292 31.3107C185.292 35.7691 188.476 40.4599 192.436 40.4599C196.395 40.4599 199.542 35.7691 199.542 31.3107C199.542 26.8522 196.395 21.9218 192.436 21.9218C188.476 21.9218 185.292 26.8813 185.292 31.3107ZM189.709 29.1904C189.709 24.9643 190.289 22.3067 192.436 22.3067C194.582 22.3067 195.126 24.957 195.126 29.1904V33.5762C195.126 37.8458 194.589 40.075 192.436 40.075C190.282 40.075 189.709 37.8458 189.709 33.5762V29.1904ZM206.533 37.5771C207.15 39.3489 207.991 40.4599 209.876 40.4599C213.64 40.4599 216.251 35.1882 216.251 31.0783C216.135 26.9684 213.524 21.9218 209.876 21.9218C208.071 21.9218 207.15 22.9602 206.533 24.6521H206.417V21.6168H206.149C205.148 22.3139 203.466 22.234 201.769 22.234H200.152V22.6189H202.378V46.1164H200.152V46.5013H208.984V46.1164H206.41V37.5844H206.526L206.533 37.5771ZM211.798 33.1913C211.798 37.3012 211.566 40.075 209.419 40.075C208.034 40.075 206.417 38.0709 206.417 34.3459V27.7744C206.417 24.1946 208.027 22.3139 209.419 22.3139C211.566 22.3139 211.798 25.0805 211.798 29.1976V33.1986V33.1913ZM216.867 40.1476H225.359V39.7628H223.133V28.1883C223.133 25.4218 224.358 22.7206 226.244 22.7206C227.237 22.7206 228.238 23.4902 228.238 26.373V39.7555H226.316V40.1404H234.156V39.7555H232.234V27.8688C232.234 24.4052 231.117 21.9073 227.433 21.9073C225.207 21.9073 223.742 23.4104 223.242 25.291H223.125V13.506H222.857C221.893 14.1595 220.13 14.1232 218.02 14.1232H216.867V14.508H219.101V39.7701H216.867V40.1549V40.1476ZM234.576 40.1476H243.068V39.7628H240.842V21.5442H240.573C239.616 22.2776 237.31 22.234 236.077 22.234H234.576V22.6189H236.803V39.7773H234.576V40.1622V40.1476ZM236.498 16.1128C236.498 17.4198 237.535 18.4219 238.804 18.4219C240.073 18.4219 241.146 17.4198 241.146 16.1128C241.146 14.8058 240.109 13.7674 238.804 13.7674C237.499 13.7674 236.498 14.8058 236.498 16.1128ZM256.238 28.4207C256.238 24.4197 254.352 21.9218 250.168 21.9218C247.361 21.9218 244.446 23.7299 244.446 26.54C244.446 28.0068 245.403 29.1541 246.868 29.1541C248.094 29.1541 249.094 28.3844 249.094 27.2661C249.094 26.1479 248.246 25.5742 247.63 25.1458C247.325 24.9207 247.093 24.6884 247.093 24.3035C247.093 23.0328 248.478 22.2631 249.82 22.2631C251.625 22.2631 252.205 23.6863 252.205 26.3004V30.1125L249.479 30.4175C246.404 30.7225 243.561 32.3418 243.561 35.8417C243.561 38.5719 245.556 40.4599 248.478 40.4599C250.704 40.4599 252.089 39.1528 252.278 36.8801H252.351C252.583 38.8043 253.272 40.4599 255.237 40.4599C257.963 40.4599 258.5 37.6135 258.5 34.3096H258.116C258.116 36.5388 257.768 39.0004 256.926 39.0004C256.426 39.0004 256.238 38.4993 256.238 36.9236V28.4207ZM252.205 33.8811C252.205 38.1145 251.248 39.6902 249.588 39.6902C247.927 39.6902 247.818 37.1923 247.818 35.3116C247.818 32.4652 248.819 30.8895 251.43 30.5845L252.198 30.5047V33.8884L252.205 33.8811Z" fill="#2E2D2C"/>
</g>
<defs>
<clipPath id="clip0_3_5239">
<rect width="258" height="60" fill="white" transform="translate(0.5)"/>
</clipPath>
</defs>
</svg>
