<svg width="155" height="28" viewBox="0 0 155 28" fill="none" xmlns="http://www.w3.org/2000/svg">
<g id="Logo">
<g id="Group">
<path id="Vector" d="M11.2707 21.44C10.0608 22.3096 8.58263 22.7953 7.09855 22.7953C2.78936 22.7953 0 20.4025 0 15.9587C0 11.5148 2.99796 9.2959 7.09855 9.2959C8.61839 9.2959 10.1025 9.60775 11.4137 10.3694L10.8237 12.0006C9.92367 10.7172 8.75548 9.95558 7.13431 9.95558C3.7549 9.95558 2.09798 12.6962 2.09798 15.8147C2.09798 18.9332 3.95755 22.0637 7.5098 22.0637C9.0952 22.0637 10.2336 21.44 11.4077 20.3965L11.2707 21.44Z" fill="#2E2D2C"/>
<path id="Vector_2" d="M14.191 7.39412L14.0897 7.14824L20.8128 3.71191L21.3611 4.92332L14.191 7.38813V7.39412ZM15.7764 22.4528L15.7407 9.61904H17.6718V22.4528H15.7705H15.7764Z" fill="#2E2D2C"/>
<path id="Vector_3" d="M24.4664 15.5083V22.4469L22.4995 22.4109L22.5353 9.60715H23.8823L24.4306 12.1739C25.3306 10.3688 26.6061 9.15137 29.2941 9.15137L29.0855 11.2324C28.7756 10.9865 28.1199 10.8186 27.7087 10.8186C25.0564 10.8186 24.4664 13.3853 24.4664 15.5023V15.5083Z" fill="#2E2D2C"/>
<path id="Vector_4" d="M43.1515 21.44C41.9475 22.3096 40.4635 22.7953 38.9794 22.7953C34.6702 22.7953 31.8749 20.4025 31.8749 15.9587C31.8749 11.5148 34.8728 9.2959 38.9794 9.2959C40.4992 9.2959 41.9773 9.60775 43.2886 10.3694L42.6985 12.0006C41.8045 10.7172 40.6304 9.95558 39.0092 9.95558C35.6298 9.95558 33.9788 12.6962 33.9788 15.8147C33.9788 18.9332 35.8384 22.0637 39.3906 22.0637C40.976 22.0637 42.1144 21.44 43.2886 20.3965L43.1515 21.44Z" fill="#2E2D2C"/>
<path id="Vector_5" d="M48.6647 9.64341C48.6647 9.64341 48.629 14.675 48.629 17.6555C48.629 19.5626 49.076 21.8535 51.9726 21.8535C54.458 21.8535 56.0077 19.4606 56.0077 16.1622V9.60742L57.9745 9.64341V22.4472H56.5977L56.0792 19.5326C55.1852 21.5116 53.5998 22.831 51.2157 22.831C48.2833 22.831 46.7336 21.3077 46.7336 17.8714V9.61342L48.6647 9.6494V9.64341Z" fill="#2E2D2C"/>
<path id="Vector_6" d="M62.1107 22.4473L62.1465 1.7334H64.1133V22.4473H62.1107Z" fill="#2E2D2C"/>
<path id="Vector_7" d="M74.1443 22.7589C72.2132 22.7589 70.4192 22.0332 69.108 20.5759C67.8325 19.1546 67.5583 17.6973 67.5583 15.7903C67.5583 11.6942 70.5206 9.06152 74.49 9.06152C78.4595 9.06152 80.9747 12.0781 80.9747 15.8622C80.9747 19.9942 78.1794 22.7649 74.1503 22.7649L74.1443 22.7589ZM74.49 9.61325C70.7649 9.61325 69.7338 13.0796 69.7338 16.2041C69.7338 19.1186 71.0093 22.1712 74.3529 22.1712C77.6966 22.1712 78.835 18.5309 78.835 15.7183C78.835 12.9057 77.6966 9.61325 74.49 9.61325Z" fill="#2E2D2C"/>
</g>
<path id="Vector_8" d="M83.8118 22.7709H84.1277C84.3184 22.2612 84.7296 21.9793 85.2005 21.9793C86.0528 21.9793 86.9349 22.7709 88.6455 22.7709C91.0772 22.7709 93.2825 21.3436 93.2825 18.483C93.2825 16.1022 91.7686 14.8968 89.021 13.5594C87.0005 12.5759 85.8978 12.0062 85.8978 10.1591C85.8978 8.59983 87.1256 7.77823 88.264 7.77823C90.3143 7.77823 91.1666 9.46341 92.2394 12.8278H92.5553L92.3646 7.46039H92.0487C91.9534 7.8442 91.5421 8.03011 91.1666 8.03011C90.6004 8.03011 89.2117 7.46039 88.1985 7.46039C85.8919 7.46039 83.7462 9.39745 83.7462 12.1321C83.7462 14.387 85.2005 15.5924 87.0303 16.45C89.0508 17.4335 90.9461 18.1652 90.9461 20.1982C90.9461 21.8174 89.8375 22.4531 88.6097 22.4531C86.3031 22.4531 85.2005 20.0063 84.1277 16.8338H83.8118V22.7709ZM94.8321 15.2146C94.8321 18.8968 97.4486 22.7709 100.703 22.7709C103.957 22.7709 106.544 18.8968 106.544 15.2146C106.544 11.5324 103.957 7.46039 100.703 7.46039C97.4486 7.46039 94.8321 11.5564 94.8321 15.2146ZM98.4619 13.4635C98.4619 9.97317 98.9387 7.77823 100.703 7.77823C102.467 7.77823 102.914 9.96717 102.914 13.4635V17.0857C102.914 20.612 102.473 22.4531 100.703 22.4531C98.9327 22.4531 98.4619 20.612 98.4619 17.0857V13.4635ZM112.289 20.3901C112.796 21.8534 113.487 22.7709 115.037 22.7709C118.13 22.7709 120.276 18.4171 120.276 15.0227C120.181 11.6284 118.035 7.46039 115.037 7.46039C113.553 7.46039 112.796 8.31797 112.289 9.71529H112.194V7.20851H111.974C111.151 7.78423 109.768 7.71826 108.374 7.71826H107.044V8.03611H108.874V27.4427H107.044V27.7605H114.304V27.4427H112.188V20.3961H112.283L112.289 20.3901ZM116.617 16.7679C116.617 20.1622 116.426 22.4531 114.662 22.4531C113.523 22.4531 112.194 20.7979 112.194 17.7214V12.294C112.194 9.33748 113.517 7.78423 114.662 7.78423C116.426 7.78423 116.617 10.0691 116.617 13.4695V16.7739V16.7679ZM120.783 22.5131H127.762V22.1952H125.932V12.6359C125.932 10.351 126.94 8.12007 128.489 8.12007C129.306 8.12007 130.128 8.75576 130.128 11.1366V22.1892H128.549V22.5071H134.992V22.1892H133.412V12.372C133.412 9.51139 132.494 7.44839 129.467 7.44839C127.637 7.44839 126.433 8.68979 126.022 10.243H125.926V0.509766H125.706C124.913 1.0495 123.465 1.01952 121.73 1.01952H120.783V1.33736H122.618V22.2012H120.783V22.5191V22.5131ZM135.337 22.5131H142.317V22.1952H140.487V7.14854H140.266C139.48 7.75424 137.584 7.71826 136.571 7.71826H135.337V8.03611H137.167V22.2072H135.337V22.5251V22.5131ZM136.917 2.66272C136.917 3.74219 137.769 4.56979 138.812 4.56979C139.855 4.56979 140.737 3.74219 140.737 2.66272C140.737 1.58324 139.885 0.72566 138.812 0.72566C137.739 0.72566 136.917 1.58324 136.917 2.66272ZM153.14 12.8278C153.14 9.52338 151.591 7.46039 148.152 7.46039C145.845 7.46039 143.449 8.95366 143.449 11.2745C143.449 12.4859 144.236 13.4335 145.44 13.4335C146.447 13.4335 147.27 12.7978 147.27 11.8742C147.27 10.9507 146.572 10.4769 146.066 10.1231C145.815 9.93718 145.625 9.74528 145.625 9.42743C145.625 8.37794 146.763 7.74225 147.866 7.74225C149.35 7.74225 149.827 8.91768 149.827 11.0766V14.2251L147.585 14.477C145.058 14.7289 142.722 16.0662 142.722 18.9568C142.722 21.2117 144.361 22.7709 146.763 22.7709C148.593 22.7709 149.731 21.6915 149.886 19.8144H149.946C150.136 21.4036 150.703 22.7709 152.318 22.7709C154.559 22.7709 155 20.4201 155 17.6914H154.684C154.684 19.5325 154.398 21.5655 153.707 21.5655C153.295 21.5655 153.14 21.1517 153.14 19.8504V12.8278ZM149.827 17.3376C149.827 20.8339 149.04 22.1353 147.675 22.1353C146.31 22.1353 146.221 20.0723 146.221 18.519C146.221 16.1682 147.043 14.8668 149.189 14.6149L149.821 14.5489V17.3436L149.827 17.3376Z" fill="#2E2D2C"/>
</g>
</svg>
