<svg width="226" height="89" viewBox="0 0 226 89" fill="none" xmlns="http://www.w3.org/2000/svg">
<g clip-path="url(#clip0_23_3509)">
<path d="M112.822 83.6902C112.661 84.5368 112.737 84.74 112.89 84.74C112.966 84.74 112.991 84.6892 113.127 84.6892C113.279 84.6892 113.432 84.7992 113.432 84.977C113.432 85.1802 113.254 85.3495 112.949 85.3495C112.534 85.3495 112.255 85.0617 112.204 84.5453C111.823 85.1379 111.146 85.4426 110.536 85.4426C109.063 85.4426 108.2 84.249 108.2 82.7336C108.2 80.9305 109.36 79.1273 111.171 79.1273C111.925 79.1273 112.509 79.466 112.89 79.9824L113.423 77.0448C113.457 76.8332 113.474 76.5792 113.482 76.4522C113.525 76.2491 113.686 76.1221 113.846 76.1221C114.033 76.1221 114.202 76.2829 114.151 76.503C114.143 76.63 114.05 76.867 114.016 77.0871L112.822 83.6902ZM112.357 83.0384L112.788 80.5919C112.509 80.0501 111.959 79.6607 111.214 79.6607C109.69 79.6607 108.809 81.286 108.809 82.6913C108.809 84.0035 109.478 84.9093 110.579 84.9093C111.391 84.9093 112.077 84.3844 112.357 83.0384Z" fill="black"/>
<path d="M116.835 82.42V82.5555C116.835 84.0285 117.605 84.9004 118.917 84.9004C119.493 84.9004 120.128 84.6719 120.466 84.1724C120.593 83.9946 120.695 83.8676 120.847 83.8676C121.051 83.8676 121.177 84.0031 121.177 84.1724C121.177 84.2994 121.118 84.4094 121 84.5364C120.483 85.1544 119.688 85.4422 118.883 85.4422C117.368 85.4422 116.259 84.3332 116.259 82.6063C116.259 80.7015 117.605 79.127 119.408 79.127C120.72 79.127 121.415 79.8973 121.415 80.8031C121.415 81.8105 120.433 82.6825 118.706 82.6825C118.155 82.6825 117.537 82.6063 116.835 82.42ZM116.911 81.929C117.495 82.0814 118.121 82.183 118.731 82.183C119.975 82.183 120.839 81.5735 120.839 80.7693C120.839 80.1513 120.322 79.6603 119.417 79.6603C118.147 79.6603 117.139 80.6761 116.911 81.929Z" fill="black"/>
<path d="M125.74 84.9177C126.57 84.9177 127.239 84.4775 127.239 83.741C127.239 83.2669 126.883 82.8944 126.104 82.5473L125.817 82.4204C124.919 82.0309 124.428 81.4892 124.428 80.7273C124.428 79.8214 125.207 79.1357 126.291 79.1357C127.213 79.1357 127.865 79.6183 128.102 80.1685C128.145 80.2363 128.153 80.2955 128.153 80.3717C128.153 80.5495 128.018 80.7103 127.84 80.7103C127.662 80.7103 127.56 80.6003 127.501 80.4056C127.366 79.923 126.909 79.6521 126.265 79.6521C125.546 79.6521 124.995 80.0669 124.995 80.6849C124.995 81.1929 125.309 81.5653 126.104 81.904L126.367 82.0309C127.442 82.5135 127.857 83.0045 127.857 83.7494C127.857 84.6468 127.061 85.4426 125.715 85.4426C124.784 85.4426 123.836 84.9431 123.599 84.0457C123.573 83.9442 123.565 83.8595 123.565 83.7918C123.565 83.614 123.675 83.4278 123.895 83.4278C124.115 83.4278 124.208 83.6394 124.225 83.8341C124.301 84.5113 125.012 84.9177 125.74 84.9177Z" fill="black"/>
<path d="M131.345 80.9474C131.497 80.1262 131.404 79.94 131.285 79.94C131.209 79.94 131.184 79.9908 131.048 79.9908C130.896 79.9908 130.744 79.8722 130.744 79.7029C130.744 79.4998 130.921 79.3389 131.226 79.3389C131.616 79.3389 131.895 79.5929 131.929 80.1431C132.344 79.4998 133.029 79.1357 133.707 79.1357C135.171 79.1357 135.992 80.2363 135.992 81.8193C135.992 83.7325 134.748 85.451 133.046 85.451C132.276 85.451 131.675 85.1209 131.277 84.596L130.786 87.3473C130.744 87.5589 130.735 87.8129 130.727 87.9399C130.684 88.1261 130.524 88.27 130.363 88.27C130.177 88.27 130.007 88.1092 130.05 87.8891C130.075 87.7621 130.16 87.5081 130.202 87.305L131.345 80.9474ZM131.379 83.9949C131.666 84.5198 132.259 84.9008 133.004 84.9008C134.494 84.9008 135.374 83.2331 135.374 81.8532C135.374 80.4733 134.723 79.6606 133.681 79.6606C132.902 79.6606 132.132 80.1516 131.819 81.5315L131.379 83.9949Z" fill="black"/>
<path d="M139.489 84.7566C139.599 84.7566 139.599 84.6889 139.743 84.6889C139.895 84.6889 140.031 84.7989 140.031 84.9767C140.031 85.1798 139.853 85.3492 139.548 85.3492C139.082 85.3492 138.727 84.9851 138.727 84.3672C138.727 84.0285 138.803 83.6645 138.905 83.1312L139.98 77.036C140.014 76.8244 140.03 76.5704 140.039 76.4434C140.073 76.2403 140.242 76.1133 140.403 76.1133C140.589 76.1133 140.759 76.2741 140.708 76.4942C140.691 76.6212 140.606 76.8582 140.572 77.0784L139.438 83.3682C139.362 83.8254 139.311 84.1217 139.311 84.3248C139.311 84.6296 139.379 84.7566 139.489 84.7566Z" fill="black"/>
<path d="M143.154 84.3758C143.154 84.0372 143.23 83.6562 143.34 83.1314L143.907 80.5578C144.009 80.0668 143.958 79.8891 143.823 79.8891C143.747 79.8891 143.721 79.9483 143.594 79.9483C143.442 79.9483 143.289 79.8383 143.289 79.6605C143.289 79.4573 143.467 79.2795 143.772 79.2795C144.161 79.2795 144.5 79.5335 144.525 80.033C144.542 80.2107 144.517 80.3885 144.449 80.7018L143.874 83.3769C143.789 83.834 143.738 84.1303 143.738 84.3504C143.738 84.6128 143.797 84.7567 143.924 84.7567C144.026 84.7567 144.026 84.689 144.161 84.689C144.314 84.689 144.449 84.7991 144.449 84.9768C144.449 85.18 144.271 85.3493 143.967 85.3493C143.518 85.3493 143.154 84.9938 143.154 84.3758ZM144.085 77.2986C144.085 77.0446 144.288 76.833 144.551 76.833C144.813 76.833 145.033 77.0446 145.033 77.2986C145.033 77.5526 144.822 77.7557 144.551 77.7557C144.28 77.7557 144.085 77.5526 144.085 77.2986Z" fill="black"/>
<path d="M147.869 82.42V82.5555C147.869 84.0285 148.64 84.9004 149.952 84.9004C150.528 84.9004 151.162 84.6719 151.501 84.1724C151.628 83.9946 151.73 83.8676 151.882 83.8676C152.085 83.8676 152.212 84.0031 152.212 84.1724C152.212 84.2994 152.153 84.4094 152.034 84.5364C151.518 85.1544 150.722 85.4422 149.918 85.4422C148.403 85.4422 147.294 84.3332 147.294 82.6063C147.294 80.7015 148.64 79.127 150.443 79.127C151.755 79.127 152.449 79.8973 152.449 80.8031C152.449 81.8105 151.467 82.6825 149.74 82.6825C149.198 82.6825 148.58 82.6063 147.869 82.42ZM147.946 81.929C148.53 82.0814 149.156 82.183 149.766 82.183C151.01 82.183 151.874 81.5735 151.874 80.7693C151.874 80.1513 151.357 79.6603 150.451 79.6603C149.182 79.6603 148.174 80.6761 147.946 81.929Z" fill="black"/>
<path d="M154.82 87.3639C154.752 87.2792 154.709 87.1777 154.709 87.0507C154.709 86.8729 154.82 86.7205 155.023 86.7205C155.158 86.7205 155.285 86.7798 155.361 86.9576C155.548 87.3893 156.039 87.6094 156.606 87.6094C157.689 87.6094 158.443 86.7798 158.739 85.4168L158.875 84.6888C158.51 85.1713 157.969 85.4422 157.359 85.4422C155.937 85.4422 155.014 84.2994 155.014 82.7333C155.014 80.9301 156.182 79.127 158.003 79.127C158.773 79.127 159.34 79.491 159.704 80.0243L159.78 79.6434C159.806 79.4571 159.967 79.3132 160.144 79.3132C160.322 79.3132 160.483 79.474 160.449 79.6941C160.424 79.8211 160.314 80.0751 160.271 80.2698L159.34 85.3237C159.035 86.9914 158.146 88.1343 156.589 88.1343C155.954 88.1427 155.243 87.9142 154.82 87.3639ZM159.196 82.9872L159.611 80.6338C159.332 80.092 158.781 79.6603 158.036 79.6603C156.513 79.6603 155.615 81.2857 155.615 82.6909C155.615 84.0031 156.293 84.9089 157.41 84.9089C158.214 84.9089 158.959 84.3502 159.196 82.9872Z" fill="black"/>
<path d="M162.955 82.7333C162.955 80.9301 164.115 79.127 165.935 79.127C166.705 79.127 167.255 79.4825 167.636 80.0243L167.696 79.6434C167.738 79.4571 167.899 79.3132 168.06 79.3132C168.246 79.3132 168.415 79.474 168.364 79.6941C168.347 79.8211 168.229 80.0751 168.187 80.2698L167.552 83.7153C167.416 84.511 167.442 84.7396 167.628 84.7396C167.712 84.7396 167.729 84.6888 167.865 84.6888C168.017 84.6888 168.17 84.7988 168.17 84.9766C168.17 85.1798 167.992 85.3491 167.687 85.3491C167.272 85.3491 166.993 85.0613 166.942 84.5449C166.561 85.1375 165.884 85.4422 165.274 85.4422C163.818 85.4422 162.955 84.2486 162.955 82.7333ZM167.12 82.9872L167.526 80.6338C167.247 80.092 166.705 79.6603 165.96 79.6603C164.436 79.6603 163.556 81.2857 163.556 82.6909C163.556 84.0031 164.225 84.9089 165.317 84.9089C166.121 84.9089 166.883 84.3502 167.12 82.9872Z" fill="black"/>
<path d="M175.171 82.42V82.5555C175.171 84.0285 175.941 84.9004 177.253 84.9004C177.829 84.9004 178.464 84.6719 178.802 84.1724C178.929 83.9946 179.031 83.8676 179.183 83.8676C179.386 83.8676 179.513 84.0031 179.513 84.1724C179.513 84.2994 179.446 84.4094 179.336 84.5364C178.819 85.1544 178.023 85.4422 177.219 85.4422C175.704 85.4422 174.595 84.3332 174.595 82.6063C174.595 80.7015 175.941 79.127 177.744 79.127C179.056 79.127 179.75 79.8973 179.75 80.8031C179.75 81.8105 178.768 82.6825 177.042 82.6825C176.5 82.6825 175.882 82.6063 175.171 82.42ZM175.247 81.929C175.831 82.0814 176.457 82.183 177.058 82.183C178.303 82.183 179.166 81.5735 179.166 80.7693C179.166 80.1513 178.65 79.6603 177.744 79.6603C176.483 79.6603 175.475 80.6761 175.247 81.929Z" fill="black"/>
<path d="M183.145 84.7566C183.255 84.7566 183.255 84.6889 183.399 84.6889C183.551 84.6889 183.687 84.7989 183.687 84.9767C183.687 85.1798 183.509 85.3492 183.213 85.3492C182.747 85.3492 182.392 84.9851 182.392 84.3672C182.392 84.0285 182.468 83.6645 182.569 83.1312L183.644 77.036C183.678 76.8244 183.695 76.5704 183.704 76.4434C183.746 76.2403 183.907 76.1133 184.068 76.1133C184.254 76.1133 184.423 76.2741 184.373 76.4942C184.356 76.6212 184.271 76.8582 184.237 77.0784L183.103 83.3682C183.027 83.8254 182.976 84.1217 182.976 84.3248C182.95 84.6296 183.035 84.7566 183.145 84.7566Z" fill="black"/>
<path d="M190.265 82.7333C190.265 80.9301 191.424 79.127 193.245 79.127C194.015 79.127 194.565 79.4825 194.946 80.0243L195.005 79.6434C195.048 79.4571 195.209 79.3132 195.369 79.3132C195.556 79.3132 195.725 79.474 195.674 79.6941C195.666 79.8211 195.539 80.0751 195.496 80.2698L194.87 83.7153C194.734 84.511 194.76 84.7396 194.946 84.7396C195.031 84.7396 195.048 84.6888 195.183 84.6888C195.335 84.6888 195.488 84.7988 195.488 84.9766C195.488 85.1798 195.31 85.3491 195.005 85.3491C194.591 85.3491 194.311 85.0613 194.26 84.5449C193.879 85.1375 193.202 85.4422 192.593 85.4422C191.12 85.4422 190.265 84.2486 190.265 82.7333ZM194.421 82.9872L194.828 80.6338C194.548 80.092 194.006 79.6603 193.261 79.6603C191.738 79.6603 190.849 81.2857 190.849 82.6909C190.849 84.0031 191.518 84.9089 192.618 84.9089C193.422 84.9089 194.184 84.3502 194.421 82.9872Z" fill="black"/>
<path d="M199.12 84.7566C199.23 84.7566 199.23 84.6889 199.374 84.6889C199.526 84.6889 199.662 84.7989 199.662 84.9767C199.662 85.1798 199.484 85.3492 199.179 85.3492C198.713 85.3492 198.358 84.9851 198.358 84.3672C198.358 84.0285 198.434 83.6645 198.536 83.1312L199.611 77.036C199.645 76.8244 199.662 76.5704 199.67 76.4434C199.712 76.2403 199.873 76.1133 200.034 76.1133C200.22 76.1133 200.39 76.2741 200.339 76.4942C200.322 76.6212 200.237 76.8582 200.203 77.0784L199.069 83.3682C198.993 83.8254 198.942 84.1217 198.942 84.3248C198.925 84.6296 199.001 84.7566 199.12 84.7566Z" fill="black"/>
<path d="M207.543 82.2257L207.154 84.4352C207.111 84.6468 207.111 84.8923 207.086 85.0108C207.052 85.214 206.9 85.3494 206.705 85.3494C206.527 85.3494 206.366 85.1971 206.417 84.9346C206.443 84.8246 206.519 84.596 206.553 84.3759L207.086 81.4638C207.289 80.3633 206.747 79.6437 205.909 79.6437C205.071 79.6437 204.047 80.5156 203.742 82.2341L203.353 84.4267C203.31 84.6383 203.31 84.8838 203.302 85.0024C203.259 85.2055 203.099 85.341 202.921 85.341C202.743 85.341 202.582 85.1886 202.633 84.9262C202.658 84.8161 202.735 84.5876 202.768 84.3674L203.437 80.6849C203.539 80.0924 203.48 79.9061 203.353 79.9061C203.276 79.9061 203.251 79.94 203.124 79.94C202.972 79.94 202.819 79.8384 202.819 79.6521C202.819 79.4659 202.98 79.2966 203.285 79.2966C203.725 79.2966 203.988 79.5844 203.988 80.2278C203.988 80.3379 203.962 80.4818 203.954 80.6088C204.318 79.7283 205.13 79.1104 205.994 79.1104C206.917 79.1104 207.518 79.8045 207.611 80.7019C207.992 79.7791 208.745 79.1104 209.668 79.1104C210.794 79.1104 211.446 79.8384 211.446 80.9474C211.446 82.0564 210.777 83.2077 210.777 84.3251C210.777 84.6045 210.862 84.7315 210.98 84.7315C211.082 84.7315 211.082 84.6637 211.217 84.6637C211.369 84.6637 211.522 84.7738 211.522 84.9685C211.522 85.1632 211.344 85.3325 211.048 85.3325C210.582 85.3325 210.201 84.96 210.201 84.3251C210.201 83.1738 210.845 82.031 210.845 80.9304C210.845 80.2109 210.464 79.6267 209.6 79.6267C208.669 79.6606 207.831 80.6257 207.543 82.2257Z" fill="black"/>
<path d="M214.256 82.7333C214.256 80.9301 215.416 79.127 217.236 79.127C218.006 79.127 218.556 79.4825 218.937 80.0243L218.997 79.6434C219.039 79.4571 219.2 79.3132 219.361 79.3132C219.547 79.3132 219.716 79.474 219.665 79.6941C219.648 79.8211 219.53 80.0751 219.488 80.2698L218.853 83.7153C218.717 84.511 218.743 84.7396 218.929 84.7396C219.013 84.7396 219.03 84.6888 219.166 84.6888C219.318 84.6888 219.471 84.7988 219.471 84.9766C219.471 85.1798 219.293 85.3491 218.988 85.3491C218.573 85.3491 218.294 85.0613 218.243 84.5449C217.862 85.1375 217.185 85.4422 216.584 85.4422C215.111 85.4422 214.256 84.2486 214.256 82.7333ZM218.421 82.9872L218.827 80.6338C218.548 80.092 218.006 79.6603 217.261 79.6603C215.737 79.6603 214.857 81.2857 214.857 82.6909C214.857 84.0031 215.526 84.9089 216.618 84.9089C217.422 84.9089 218.175 84.3502 218.421 82.9872Z" fill="black"/>
<path d="M0.721721 69.849H1.72065C2.3217 68.2575 3.61693 67.3602 5.11533 67.3602C7.80736 67.3602 10.5925 69.849 15.9851 69.849C23.6548 69.849 30.6304 65.3708 30.6304 56.3973C30.6304 48.9222 25.8474 45.1382 17.1787 40.9477C10.8042 37.8578 7.31636 36.0631 7.31636 30.2896C7.31636 25.405 11.202 22.8146 14.7914 22.8146C21.2675 22.8146 23.9596 28.0971 27.3458 38.6536H28.3447L27.7521 21.8072H26.7532C26.4569 23.0093 25.1617 23.6019 23.968 23.6019C22.1734 23.6019 17.7967 21.8072 14.6052 21.8072C7.32483 21.8072 0.543945 27.8854 0.543945 36.461C0.543945 43.5382 5.13226 47.3223 10.9057 50.0143C17.2887 53.1042 23.2739 55.3984 23.2739 61.7729C23.2739 66.8522 19.7776 68.8501 15.9004 68.8501C8.62005 68.8501 5.14072 61.1803 1.74605 51.2164H0.747118V69.849H0.721721ZM35.515 46.1371C35.515 57.701 43.7689 69.849 54.046 69.849C64.3232 69.849 72.484 57.6925 72.484 46.1371C72.484 34.5817 64.3063 21.8156 54.046 21.8156C43.7689 21.8156 35.515 34.6748 35.515 46.1371ZM46.9604 40.6514C46.9604 29.6971 48.4588 22.823 54.0376 22.823C59.6164 22.823 61.0132 29.6971 61.0132 40.6514V52.0122C61.0132 63.0766 59.6248 68.8586 54.0376 68.8586C48.4503 68.8586 46.9604 63.0766 46.9604 52.0122V40.6514ZM90.6171 62.374C92.2086 66.9623 94.4012 69.8406 99.2858 69.8406C109.055 69.8406 115.827 56.1857 115.827 45.5276C115.531 34.8695 108.759 21.8072 99.2858 21.8072C94.6044 21.8072 92.2171 24.4992 90.6171 28.8844H90.3123V21.0114H89.6182C87.0193 22.8061 82.651 22.6114 78.2574 22.6114H74.067V23.6019H79.849V84.4859H74.067V85.4764H96.9916V84.4859H90.3123V62.374H90.6171ZM104.272 51.0217C104.272 61.6798 103.671 68.8586 98.1006 68.8586C94.5028 68.8586 90.3208 63.6692 90.3208 54.0016V36.9689C90.3208 27.6992 94.5028 22.8146 98.1006 22.8146C103.671 22.8146 104.272 29.9933 104.272 40.643V51.0217ZM117.419 69.0533H139.446V68.0628H133.673V38.0695C133.673 30.8907 136.856 23.9066 141.749 23.9066C144.331 23.9066 146.93 25.9045 146.93 33.3796V68.0628H141.944V69.0533H162.278V68.0628H157.292V37.2737C157.292 28.3002 154.405 21.8241 144.839 21.8241C139.057 21.8241 135.273 25.7098 133.969 30.5944H133.673V0H132.979C130.481 1.68464 125.901 1.59152 120.424 1.59152H117.427V2.59045H123.226V68.0628H117.427V69.0533H117.419ZM163.361 69.0533H185.389V68.0628H179.615V20.8252H178.921C176.432 22.7215 170.455 22.6199 167.264 22.6199H163.37V23.6103H169.152V68.0628H163.37V69.0533H163.361ZM168.348 6.77242C168.348 10.1502 171.04 12.7491 174.324 12.7491C177.609 12.7491 180.402 10.1502 180.402 6.77242C180.402 3.39467 177.71 0.685707 174.324 0.685707C170.938 0.685707 168.348 3.37774 168.348 6.77242ZM219.572 38.662C219.572 28.2918 214.679 21.8156 203.818 21.8156C196.546 21.8156 188.978 26.4971 188.978 33.7774C188.978 37.57 191.467 40.5583 195.259 40.5583C198.442 40.5583 201.041 38.5604 201.041 35.6737C201.041 32.787 198.849 31.297 197.249 30.188C196.462 29.5955 195.86 28.9944 195.86 28.0039C195.86 24.7109 199.45 22.7215 202.938 22.7215C207.619 22.7215 209.117 26.4124 209.117 33.1848V43.0556L202.04 43.8514C194.066 44.6472 186.692 48.8376 186.692 57.8957C186.692 64.9729 191.873 69.8575 199.45 69.8575C205.232 69.8575 208.821 66.4628 209.312 60.5877H209.507C210.108 65.5739 211.903 69.8575 216.99 69.8575C224.059 69.8575 225.456 62.484 225.456 53.9169H224.465C224.465 59.6904 223.568 66.0734 221.376 66.0734C220.08 66.0734 219.589 64.7782 219.589 60.6978V38.662H219.572ZM209.109 52.8079C209.109 63.7708 206.62 67.8512 202.328 67.8512C198.036 67.8512 197.74 61.375 197.74 56.4989C197.74 49.117 200.339 45.0366 207.12 44.2408L209.109 44.0376V52.8079Z" fill="black"/>
</g>
<defs>
<clipPath id="clip0_23_3509">
<rect width="224.912" height="88.27" fill="white" transform="translate(0.543945)"/>
</clipPath>
</defs>
</svg>
