<svg width="68" height="70" viewBox="0 0 68 70" fill="none" xmlns="http://www.w3.org/2000/svg">
<g id="Iso">
<path id="Vector" d="M34 69.3461C52.7777 69.3461 68 54.0295 68 35.1354C68 16.2414 52.7777 0.924805 34 0.924805C15.2223 0.924805 0 16.2414 0 35.1354C0 54.0295 15.2223 69.3461 34 69.3461Z" fill="#70C6C5"/>
<g id="Group">
<path id="Vector_2" d="M42.2884 17.1891C41.7677 16.7644 41.1978 16.3679 40.635 15.9927V15.9785C40.5364 15.9077 40.4309 15.8582 40.3254 15.7945C40.248 15.7449 40.1635 15.6812 40.0861 15.6387V15.6529C38.4327 14.7042 36.5189 14.4777 34.5067 14.4848C35.9561 14.0033 37.4547 13.3874 38.3342 12.1344C38.1794 9.05476 33.1276 13.3025 32.1778 14.6405C31.3194 14.7892 30.4751 15.044 29.68 15.4122H29.6659C29.6659 15.4122 29.6659 15.4122 29.6589 15.4122C25.6695 17.267 22.623 21.6634 22.623 26.3642C22.623 40.7356 40.635 36.9905 40.635 47.8647C40.635 51.992 37.9613 55.3619 33.9297 55.3619C27.3441 55.3619 24.7971 49.6133 22.9959 42.0524H22.3767V55.992H22.9959C23.3055 54.8026 23.9879 53.8681 25.5429 53.8681C27.9632 53.8681 29.9544 55.992 34.0493 55.992C40.5716 55.992 45.7923 50.739 45.7923 43.9285C45.7923 28.8066 27.7803 32.488 27.7803 22.4917C27.7803 19.2422 29.2156 16.4812 31.7556 15.5042C32.5507 15.2493 33.6483 15.0653 34.8655 15.0653L34.9921 15.3485C38.3272 20.9767 43.0061 18.8245 36.8707 15.575C36.8778 15.575 36.8848 15.575 36.8918 15.575L35.6535 15.0865C37.2507 15.1927 38.9674 15.6529 40.4168 16.7219C41.8029 17.7555 42.802 19.1997 43.2523 20.8846C43.4564 21.8404 43.4212 23.2563 44.3781 23.8368C44.6947 24.0421 45.0957 24.0563 45.4264 23.8793C45.7571 23.7023 45.9752 23.3554 45.9823 22.9802C46.137 20.736 43.4353 20.1059 42.6332 18.3289C48.874 22.3713 48.8107 16.7785 42.2954 17.1891H42.2884Z" fill="#FDFEFE"/>
<path id="Vector_3" d="M40.3112 22.6756C40.6911 22.3145 40.7404 21.911 40.473 21.3942C40.2056 20.8915 39.7342 20.7216 39.1995 20.9269C38.6577 21.1393 38.4818 21.4721 38.5944 22.1092C38.6577 22.4844 38.7633 22.6331 39.0658 22.803C39.5654 23.0791 39.9312 23.0437 40.3182 22.6756H40.3112ZM39.3824 21.7694C39.5232 21.6137 39.8398 21.7057 39.8679 21.911C39.882 21.9959 39.8187 22.088 39.7342 22.1234C39.5302 22.2013 39.2488 21.9181 39.3824 21.7694Z" fill="#FDFEFE"/>
<path id="Vector_4" d="M42.8301 25.0259C42.8301 24.8277 42.7245 24.5374 42.612 24.4029C42.3587 24.0914 42.021 24.0277 41.634 24.2047C41.24 24.3887 41.1415 24.6932 41.3103 25.1463C41.5073 25.6631 42.028 25.8542 42.4994 25.5852C42.8019 25.4082 42.8371 25.3516 42.8301 25.0188V25.0259Z" fill="#FDFEFE"/>
<path id="Vector_5" d="M37.8839 24.7643C37.5603 24.8918 37.497 25.0758 37.6518 25.4227C37.7573 25.6705 37.8347 25.713 38.1021 25.713C38.4468 25.713 38.5946 25.5218 38.5594 25.1041C38.5383 24.7926 38.2146 24.6298 37.8839 24.7643Z" fill="#FDFEFE"/>
<path id="Vector_6" d="M42.3446 28.2406C42.028 28.2618 41.8098 28.6724 41.9365 29.0122C42.042 29.3025 42.1476 29.3662 42.4994 29.3379C42.8301 29.3167 43.0974 28.7645 42.9075 28.5025C42.7316 28.2547 42.6471 28.2193 42.3446 28.2406Z" fill="#FDFEFE"/>
<path id="Vector_7" d="M41.064 13.6847C41.3525 13.274 41.268 12.828 40.8529 12.5378C40.3674 12.1909 39.7412 12.4811 39.5935 13.1183C39.5724 13.2033 39.685 13.444 39.8327 13.6422C40.2056 14.1448 40.7333 14.159 41.064 13.6847Z" fill="#FDFEFE"/>
<path id="Vector_8" d="M43.7588 12.1625C43.7729 11.766 43.3648 11.3837 42.9989 11.4474C42.6542 11.5041 42.4571 11.9218 42.5979 12.2828C42.8652 12.9554 43.7377 12.8704 43.7588 12.1625Z" fill="#FDFEFE"/>
<path id="Vector_9" d="M43.0973 15.2563C43.625 15.1147 43.4069 14.2723 42.8722 14.3714C42.6189 14.4138 42.5063 14.5342 42.443 14.8245C42.3937 15.051 42.8229 15.3342 43.0973 15.2563Z" fill="#FDFEFE"/>
</g>
</g>
</svg>
